<svg width="33" height="33" viewBox="0 0 33 33" fill="none" xmlns="http://www.w3.org/2000/svg">
<path d="M21.7301 29.8902V24.7302C21.7802 24.0944 21.6943 23.4553 21.4782 22.8553C21.2621 22.2553 20.9207 21.7081 20.4768 21.2502C24.6635 20.7836 29.0635 19.1969 29.0635 11.9169C29.0631 10.0553 28.3471 8.26515 27.0635 6.91688C27.6713 5.28822 27.6283 3.48802 26.9435 1.89022C26.9435 1.89022 25.3701 1.42355 21.7301 3.86355C18.6742 3.03531 15.4528 3.03531 12.3968 3.86355C8.75681 1.42355 7.18348 1.89022 7.18348 1.89022C6.49864 3.48802 6.45567 5.28822 7.06348 6.91688C5.77031 8.27515 5.05351 10.0815 5.06348 11.9569C5.06348 19.1836 9.46348 20.7702 13.6501 21.2902C13.2115 21.7435 12.8732 22.2841 12.6572 22.8768C12.4413 23.4695 12.3526 24.101 12.3968 24.7302V29.8902M12.3968 25.8902C5.73014 27.8902 5.73014 22.5569 3.06348 21.8902L12.3968 25.8902Z" stroke="white" strokeWidth="1.33333" strokeLinecap="round" strokeLinejoin="round"/>
</svg>
