<svg width="33" height="33" viewBox="0 0 33 33" fill="none" xmlns="http://www.w3.org/2000/svg">
<path d="M7.06348 7.4401C7.06348 6.20243 7.55514 5.01544 8.43031 4.14027C9.30548 3.2651 10.4925 2.77344 11.7301 2.77344H16.3968V12.1068H11.7301C10.4925 12.1068 9.30548 11.6151 8.43031 10.7399C7.55514 9.86477 7.06348 8.67778 7.06348 7.4401Z" stroke="white" stroke-width="1.33333" stroke-linecap="round" stroke-linejoin="round"/>
<path d="M16.3965 2.77344H21.0632C21.676 2.77344 22.2828 2.89414 22.849 3.12867C23.4152 3.36319 23.9296 3.70693 24.363 4.14027C24.7963 4.57361 25.1401 5.08806 25.3746 5.65425C25.6091 6.22043 25.7298 6.82727 25.7298 7.4401C25.7298 8.05294 25.6091 8.65977 25.3746 9.22596C25.1401 9.79215 24.7963 10.3066 24.363 10.7399C23.9296 11.1733 23.4152 11.517 22.849 11.7515C22.2828 11.9861 21.676 12.1068 21.0632 12.1068H16.3965V2.77344Z" stroke="white" stroke-width="1.33333" stroke-linecap="round" stroke-linejoin="round"/>
<path d="M16.3965 16.7731C16.3965 16.1603 16.5172 15.5534 16.7517 14.9873C16.9862 14.4211 17.33 13.9066 17.7633 13.4733C18.1967 13.0399 18.7111 12.6962 19.2773 12.4617C19.8435 12.2272 20.4503 12.1064 21.0632 12.1064C21.676 12.1064 22.2828 12.2272 22.849 12.4617C23.4152 12.6962 23.9296 13.0399 24.363 13.4733C24.7963 13.9066 25.1401 14.4211 25.3746 14.9873C25.6091 15.5534 25.7298 16.1603 25.7298 16.7731C25.7298 17.3859 25.6091 17.9928 25.3746 18.559C25.1401 19.1252 24.7963 19.6396 24.363 20.0729C23.9296 20.5063 23.4152 20.85 22.849 21.0846C22.2828 21.3191 21.676 21.4398 21.0632 21.4398C20.4503 21.4398 19.8435 21.3191 19.2773 21.0846C18.7111 20.85 18.1967 20.5063 17.7633 20.0729C17.33 19.6396 16.9862 19.1252 16.7517 18.559C16.5172 17.9928 16.3965 17.3859 16.3965 16.7731V16.7731Z" stroke="white" stroke-width="1.33333" stroke-linecap="round" stroke-linejoin="round"/>
<path d="M7.06348 26.1061C7.06348 24.8684 7.55514 23.6815 8.43031 22.8063C9.30548 21.9311 10.4925 21.4395 11.7301 21.4395H16.3968V26.1061C16.3968 27.3438 15.9051 28.5308 15.03 29.406C14.1548 30.2811 12.9678 30.7728 11.7301 30.7728C10.4925 30.7728 9.30548 30.2811 8.43031 29.406C7.55514 28.5308 7.06348 27.3438 7.06348 26.1061Z" stroke="white" stroke-width="1.33333" stroke-linecap="round" stroke-linejoin="round"/>
<path d="M7.06348 16.7731C7.06348 15.5354 7.55514 14.3485 8.43031 13.4733C9.30548 12.5981 10.4925 12.1064 11.7301 12.1064H16.3968V21.4398H11.7301C10.4925 21.4398 9.30548 20.9481 8.43031 20.0729C7.55514 19.1978 7.06348 18.0108 7.06348 16.7731Z" stroke="white" stroke-width="1.33333" stroke-linecap="round" stroke-linejoin="round"/>
</svg>
