<svg width="33" height="33" viewBox="0 0 33 33" fill="none" xmlns="http://www.w3.org/2000/svg">
<path d="M31.0628 4.76341C29.786 5.66404 28.3723 6.35289 26.8762 6.80341C26.0731 5.88009 25.0059 5.22566 23.8189 4.92864C22.6318 4.63162 21.3822 4.70634 20.2389 5.14268C19.0957 5.57902 18.1141 6.35594 17.4268 7.36836C16.7395 8.38078 16.3798 9.57986 16.3962 10.8034V12.1367C14.053 12.1975 11.7312 11.6778 9.6375 10.624C7.54382 9.57018 5.74325 8.01492 4.39616 6.09674C4.39616 6.09674 -0.937175 18.0967 11.0628 23.4301C8.31686 25.294 5.0457 26.2286 1.72949 26.0967C13.7295 32.7634 28.3962 26.0967 28.3962 10.7634C28.3949 10.392 28.3592 10.0215 28.2895 9.65674C29.6503 8.31473 30.6106 6.62036 31.0628 4.76341V4.76341Z" stroke="white" stroke-width="1.33333" stroke-linecap="round" stroke-linejoin="round"/>
</svg>
