<svg width="42" height="33" viewBox="0 0 42 33" fill="none" xmlns="http://www.w3.org/2000/svg">
<path d="M38.2803 7.82851C38.0787 7.0099 37.6682 6.25985 37.0902 5.65414C36.5122 5.04842 35.7872 4.60848 34.9884 4.37875C32.0697 3.6543 20.3952 3.6543 20.3952 3.6543C20.3952 3.6543 8.72064 3.6543 5.802 4.44774C5.00319 4.67747 4.27816 5.11741 3.70015 5.72313C3.12214 6.32885 2.71162 7.07889 2.51005 7.89751C1.9759 10.9084 1.71461 13.9627 1.72949 17.0221C1.71045 20.1046 1.97175 23.1822 2.51005 26.2157C2.73227 27.0089 3.15199 27.7304 3.72866 28.3106C4.30532 28.8907 5.01943 29.3099 5.802 29.5275C8.72064 30.321 20.3952 30.321 20.3952 30.321C20.3952 30.321 32.0697 30.321 34.9884 29.5275C35.7872 29.2978 36.5122 28.8579 37.0902 28.2521C37.6682 27.6464 38.0787 26.8964 38.2803 26.0778C38.8104 23.0896 39.0716 20.0585 39.0609 17.0221C39.0799 13.9397 38.8186 10.8621 38.2803 7.82851V7.82851Z" stroke="white" strokeWidth="1.33333" strokeLinecap="round" strokeLinejoin="round"/>
<path d="M16.3965 22.321L27.0632 16.9876L16.3965 11.6543V22.321Z" stroke="white" strokeWidth="1.33333" strokeLinecap="round" strokeLinejoin="round"/>
</svg>
