<svg width="134" height="233" viewBox="0 0 134 233" fill="none" xmlns="http://www.w3.org/2000/svg">
<path d="M51.1424 29.3008C38.7949 41.6642 38.8079 61.6964 51.1713 74.0439C63.5348 86.3913 83.567 86.3784 95.9144 74.0149C108.262 61.6515 108.249 41.6193 95.8855 29.2718C83.522 16.9244 63.4899 16.9373 51.1424 29.3008Z" fill="#2B305E"/>
<path d="M136.488 47.2354C124.141 59.5988 124.154 79.631 136.517 91.9784C148.88 104.326 168.913 104.313 181.26 91.9495C193.608 79.586 193.595 59.5539 181.231 47.2064C168.868 34.8589 148.836 34.8719 136.488 47.2354Z" fill="#2B305E"/>
<path d="M53.0525 130.777C40.7051 143.141 40.718 163.173 53.0815 175.52C65.4449 187.868 85.4771 187.855 97.8246 175.491C110.172 163.128 110.159 143.096 97.7956 130.748C85.4322 118.401 65.4 118.414 53.0525 130.777Z" fill="#DBB968"/>
<path d="M103.891 190.948C98.2857 196.56 98.2915 205.653 103.904 211.258C109.516 216.863 118.609 216.857 124.214 211.245C129.819 205.633 129.813 196.539 124.201 190.935C118.589 185.33 109.495 185.336 103.891 190.948Z" fill="#DBB968"/>
</svg>
