<svg width="210" height="233" viewBox="0 0 210 233" fill="none" xmlns="http://www.w3.org/2000/svg">
<path d="M50.4769 29.0176C38.1294 41.381 38.1424 61.4132 50.5058 73.7607C62.8693 86.1081 82.9014 86.0952 95.2489 73.7317C107.596 61.3683 107.583 41.3361 95.2199 28.9886C82.8565 16.6412 62.8243 16.6541 50.4769 29.0176Z" fill="#2B305E"/>
<path d="M135.824 46.9521C123.476 59.3156 123.489 79.3478 135.852 91.6952C148.216 104.043 168.248 104.03 180.596 91.6663C192.943 79.3028 192.93 59.2707 180.567 46.9232C168.203 34.5757 148.171 34.5887 135.824 46.9521Z" fill="#2B305E"/>
<path d="M52.3875 130.494C40.04 142.858 40.053 162.89 52.4165 175.237C64.7799 187.585 84.8121 187.572 97.1595 175.208C109.507 162.845 109.494 142.813 97.1306 130.465C84.7671 118.118 64.735 118.131 52.3875 130.494Z" fill="#DBB968"/>
<path d="M103.225 190.664C97.6206 196.277 97.6265 205.37 103.239 210.975C108.851 216.579 117.944 216.574 123.549 210.961C129.154 205.349 129.148 196.256 123.536 190.651C117.924 185.046 108.83 185.052 103.225 190.664Z" fill="#DBB968"/>
</svg>
