<svg width="185" height="37" viewBox="0 0 185 37" fill="none" xmlns="http://www.w3.org/2000/svg">
<path d="M0 36.3679L11.5234 35.6302L5.12277 26.0195L0 36.3679ZM94.0419 1.91839L94.0522 0.918445L94.0419 1.91839ZM184.4 36.3679L179.435 25.9427L172.889 35.4548L184.4 36.3679ZM6.90789 33.1059C8.18578 32.3167 9.63771 31.4369 11.246 30.4883L10.2299 28.7657C8.60928 29.7216 7.14573 30.6084 5.85696 31.4043L6.90789 33.1059ZM15.613 27.9683C17.0085 27.1805 18.4838 26.3642 20.0312 25.5284L19.0808 23.7687C17.5219 24.6106 16.0357 25.4331 14.6298 26.2267L15.613 27.9683ZM24.5163 23.1608C25.9699 22.4112 27.4726 21.6533 29.0195 20.8933L28.1375 19.0983C26.5785 19.8643 25.0642 20.628 23.5996 21.3833L24.5163 23.1608ZM33.5797 18.7097C35.0837 18.0083 36.6215 17.31 38.189 16.6195L37.3828 14.7892C35.8016 15.4857 34.2508 16.1899 32.7344 16.8971L33.5797 18.7097ZM42.8277 14.6378C44.3681 14.0005 45.9319 13.3743 47.5158 12.7634L46.7961 10.8974C45.1965 11.5144 43.6177 12.1465 42.0631 12.7897L42.8277 14.6378ZM52.2501 11.0069C53.8281 10.445 55.4219 9.90136 57.0285 9.37968L56.4109 7.47745C54.7856 8.00518 53.174 8.55491 51.5792 9.12283L52.2501 11.0069ZM61.8473 7.89487C63.4594 7.42539 65.081 6.98108 66.709 6.56554L66.2143 4.62767C64.5637 5.04899 62.9206 5.49921 61.2881 5.97464L61.8473 7.89487ZM71.6115 5.40833C73.2555 5.05261 74.9028 4.72952 76.5505 4.44265L76.2075 2.47229C74.5317 2.76404 72.8577 3.09239 71.1885 3.45357L71.6115 5.40833ZM81.5203 3.69066C83.1901 3.47717 84.8569 3.30474 86.5177 3.17709L86.3644 1.18297C84.6684 1.31333 82.9681 1.48927 81.2666 1.7068L81.5203 3.69066ZM91.5301 2.93113C92.3665 2.91416 93.2004 2.90974 94.0315 2.91834L94.0522 0.918445C93.2002 0.90963 92.3458 0.914172 91.4895 0.93154L91.5301 2.93113ZM94.0315 2.91834C94.9244 2.92758 95.8196 2.95152 96.7166 2.98956L96.8013 0.99136C95.8836 0.952433 94.967 0.927909 94.0522 0.918445L94.0315 2.91834ZM102.088 3.37934C103.867 3.56028 105.649 3.79135 107.431 4.06787L107.738 2.09153C105.923 1.80992 104.106 1.57428 102.29 1.3896L102.088 3.37934ZM112.741 5.02304C114.503 5.38213 116.26 5.78123 118.009 6.21573L118.491 4.27474C116.716 3.83378 114.931 3.42837 113.141 3.06335L112.741 5.02304ZM123.228 7.6208C124.963 8.12334 126.687 8.65683 128.395 9.21655L129.018 7.31598C127.289 6.74939 125.543 6.20901 123.784 5.6997L123.228 7.6208ZM133.507 10.9832C135.216 11.6043 136.906 12.2478 138.571 12.9086L139.309 11.0496C137.626 10.382 135.919 9.73151 134.19 9.10342L133.507 10.9832ZM143.577 14.9755C145.259 15.6963 146.909 16.4302 148.525 17.1716L149.359 15.354C147.729 14.6058 146.063 13.865 144.365 13.1373L143.577 14.9755ZM153.43 19.495C155.09 20.3055 156.703 21.1178 158.264 21.9245L159.182 20.1476C157.608 19.3343 155.981 18.5153 154.307 17.6978L153.43 19.495ZM163.061 24.4705C164.72 25.3742 166.302 26.2603 167.798 27.1178L168.792 25.3825C167.284 24.5182 165.69 23.6251 164.018 22.7143L163.061 24.4705ZM172.474 29.8645C174.183 30.8932 175.726 31.8507 177.085 32.7116L178.155 31.0222C176.784 30.1536 175.228 29.1881 173.506 28.1511L172.474 29.8645Z" fill="black"/>
</svg>
