<svg width="1912" height="1075" viewBox="0 0 1912 1075" fill="none" xmlns="http://www.w3.org/2000/svg">
<g opacity="0.07">
<mask id="mask0_3794_1307" style="mask-type:alpha" maskUnits="userSpaceOnUse" x="0" y="0" width="1912" height="1075">
<rect x="0.587805" y="0.587805" width="1910.5" height="1073" fill="#CBA438" stroke="black" strokeWidth="1.17561"/>
</mask>
<g mask="url(#mask0_3794_1307)">
<path opacity="0.5" d="M57.5303 -68.9443L-32.3008 2.96853" stroke="black" strokeWidth="4.70244"/>
<path opacity="0.63" d="M57.5303 -68.9443L147.361 2.96853" stroke="black" strokeWidth="4.70244"/>
<path opacity="0.2" d="M237.192 -68.9443L147.361 2.96853" stroke="black" strokeWidth="4.70244"/>
<path opacity="0.39" d="M237.193 -68.9443L327.024 2.96853" stroke="black" strokeWidth="4.70244"/>
<path opacity="0.53" d="M327.023 -68.9443L416.855 2.96853" stroke="black" strokeWidth="4.70244"/>
<path opacity="0.12" d="M416.854 -68.9443L506.686 2.96853" stroke="black" strokeWidth="4.70244"/>
<path opacity="0.69" d="M506.686 -68.9443L596.517 2.96853" stroke="black" strokeWidth="4.70244"/>
<path opacity="0.77" d="M686.349 -68.9443L596.518 2.96853" stroke="black" strokeWidth="4.70244"/>
<path opacity="0.57" d="M686.349 -68.9443L776.18 2.96853" stroke="black" strokeWidth="4.70244"/>
<path opacity="0.71" d="M866.011 -68.9443L776.18 2.96853" stroke="black" strokeWidth="4.70244"/>
<path opacity="0.88" d="M866.01 -68.9443L955.841 2.96853" stroke="black" strokeWidth="4.70244"/>
<path opacity="0.24" d="M955.842 -68.9443L1045.67 2.96853" stroke="black" strokeWidth="4.70244"/>
<path opacity="0.85" d="M1135.5 -68.9443L1045.67 2.96853" stroke="black" strokeWidth="4.70244"/>
<path opacity="0.46" d="M1135.5 -68.9443L1225.34 2.96853" stroke="black" strokeWidth="4.70244"/>
<path opacity="0.93" d="M1225.33 -68.9443L1315.17 2.96853" stroke="black" strokeWidth="4.70244"/>
<path opacity="0.71" d="M1315.17 -68.9443L1405 2.96853" stroke="black" strokeWidth="4.70244"/>
<path opacity="0.34" d="M1405 -68.9443L1494.83 2.96853" stroke="black" strokeWidth="4.70244"/>
<path opacity="0.51" d="M1494.83 -68.9443L1584.66 2.96853" stroke="black" strokeWidth="4.70244"/>
<path opacity="0.58" d="M1674.49 -68.9443L1584.66 2.96853" stroke="black" strokeWidth="4.70244"/>
<path opacity="0.63" d="M1674.49 -68.9443L1764.32 2.96853" stroke="black" strokeWidth="4.70244"/>
<path opacity="0.2" d="M1764.32 -68.9443L1854.15 2.96853" stroke="black" strokeWidth="4.70244"/>
<path opacity="0.33" d="M1854.15 -68.9443L1943.98 2.96853" stroke="black" strokeWidth="4.70244"/>
<path opacity="0.68" d="M-32.2998 2.96777L57.5313 74.8806" stroke="black" strokeWidth="4.70244"/>
<path opacity="0.41" d="M57.5303 2.96777L147.361 74.8806" stroke="black" strokeWidth="4.70244"/>
<path opacity="0.92" d="M147.361 2.96777L237.192 74.8806" stroke="black" strokeWidth="4.70244"/>
<path opacity="0.78" d="M327.024 2.96777L237.193 74.8806" stroke="black" strokeWidth="4.70244"/>
<path opacity="0.44" d="M327.023 2.96777L416.855 74.8806" stroke="black" strokeWidth="4.70244"/>
<path opacity="0.6" d="M506.686 2.96777L416.854 74.8806" stroke="black" strokeWidth="4.70244"/>
<path opacity="0.39" d="M506.686 2.96777L596.517 74.8806" stroke="black" strokeWidth="4.70244"/>
<path opacity="0.55" d="M596.518 2.96777L686.349 74.8806" stroke="black" strokeWidth="4.70244"/>
<path opacity="0.38" d="M686.349 2.96777L776.18 74.8806" stroke="black" strokeWidth="4.70244"/>
<path opacity="0.9" d="M776.18 2.96777L866.011 74.8806" stroke="black" strokeWidth="4.70244"/>
<path opacity="0.49" d="M866.01 2.96777L955.841 74.8806" stroke="black" strokeWidth="4.70244"/>
<path opacity="0.62" d="M955.842 2.96777L1045.67 74.8806" stroke="black" strokeWidth="4.70244"/>
<path opacity="0.9" d="M1135.5 2.96777L1045.67 74.8806" stroke="black" strokeWidth="4.70244"/>
<path opacity="0.43" d="M1135.5 2.96777L1225.34 74.8806" stroke="black" strokeWidth="4.70244"/>
<path opacity="0.08" d="M1225.33 2.96777L1315.17 74.8806" stroke="black" strokeWidth="4.70244"/>
<path opacity="0.61" d="M1405 2.96777L1315.17 74.8806" stroke="black" strokeWidth="4.70244"/>
<path opacity="0.16" d="M1405 2.96777L1494.83 74.8806" stroke="black" strokeWidth="4.70244"/>
<path opacity="0.59" d="M1494.83 2.96777L1584.66 74.8806" stroke="black" strokeWidth="4.70244"/>
<path opacity="0.32" d="M1584.66 2.96777L1674.49 74.8806" stroke="black" strokeWidth="4.70244"/>
<path opacity="0.32" d="M1674.49 2.96777L1764.32 74.8806" stroke="black" strokeWidth="4.70244"/>
<path opacity="0.27" d="M1764.32 2.96777L1854.15 74.8806" stroke="black" strokeWidth="4.70244"/>
<path opacity="0.74" d="M1854.15 2.96777L1943.98 74.8806" stroke="black" strokeWidth="4.70244"/>
<path opacity="0.43" d="M-32.3008 74.8809L57.5303 146.794" stroke="black" strokeWidth="4.70244"/>
<path opacity="0.36" d="M147.361 74.8809L57.5303 146.794" stroke="black" strokeWidth="4.70244"/>
<path opacity="0.18" d="M147.361 74.8809L237.192 146.794" stroke="black" strokeWidth="4.70244"/>
<path opacity="0.89" d="M327.023 74.8809L237.192 146.794" stroke="black" strokeWidth="4.70244"/>
<path opacity="0.45" d="M327.023 74.8809L416.855 146.794" stroke="black" strokeWidth="4.70244"/>
<path opacity="0.63" d="M506.686 74.8809L416.854 146.794" stroke="black" strokeWidth="4.70244"/>
<path opacity="0.48" d="M596.517 74.8809L506.686 146.794" stroke="black" strokeWidth="4.70244"/>
<path opacity="0.96" d="M596.518 74.8809L686.349 146.794" stroke="black" strokeWidth="4.70244"/>
<path opacity="0.28" d="M686.349 74.8809L776.18 146.794" stroke="black" strokeWidth="4.70244"/>
<path opacity="0.18" d="M776.18 74.8809L866.011 146.794" stroke="black" strokeWidth="4.70244"/>
<path opacity="0.19" d="M866.011 74.8809L955.842 146.794" stroke="black" strokeWidth="4.70244"/>
<path opacity="0.46" d="M955.842 74.8809L1045.67 146.794" stroke="black" strokeWidth="4.70244"/>
<path opacity="0.43" d="M1045.67 74.8809L1135.5 146.794" stroke="black" strokeWidth="4.70244"/>
<path opacity="0.33" d="M1135.5 74.8809L1225.34 146.794" stroke="black" strokeWidth="4.70244"/>
<path opacity="0.21" d="M1225.33 74.8809L1315.17 146.794" stroke="black" strokeWidth="4.70244"/>
<path opacity="0.07" d="M1315.17 74.8809L1405 146.794" stroke="black" strokeWidth="4.70244"/>
<path opacity="0.29" d="M1405 74.8809L1494.83 146.794" stroke="black" strokeWidth="4.70244"/>
<path opacity="0.11" d="M1494.83 74.8809L1584.66 146.794" stroke="black" strokeWidth="4.70244"/>
<path opacity="0.59" d="M1584.66 74.8809L1674.49 146.794" stroke="black" strokeWidth="4.70244"/>
<path opacity="0.97" d="M1764.32 74.8809L1674.49 146.794" stroke="black" strokeWidth="4.70244"/>
<path opacity="0.14" d="M1854.15 74.8809L1764.32 146.794" stroke="black" strokeWidth="4.70244"/>
<path opacity="0.21" d="M1943.98 74.8809L1854.15 146.794" stroke="black" strokeWidth="4.70244"/>
<path opacity="0.73" d="M-32.3008 146.793L57.5303 218.706" stroke="black" strokeWidth="4.70244"/>
<path opacity="0.45" d="M147.361 146.793L57.5303 218.706" stroke="black" strokeWidth="4.70244"/>
<path opacity="0.71" d="M147.361 146.793L237.192 218.706" stroke="black" strokeWidth="4.70244"/>
<path opacity="0.14" d="M237.192 146.793L327.023 218.706" stroke="black" strokeWidth="4.70244"/>
<path opacity="0.8" d="M327.023 146.793L416.855 218.706" stroke="black" strokeWidth="4.70244"/>
<path opacity="0.52" d="M416.854 146.793L506.686 218.706" stroke="black" strokeWidth="4.70244"/>
<path opacity="0.8" d="M506.686 146.793L596.517 218.706" stroke="black" strokeWidth="4.70244"/>
<path opacity="0.54" d="M686.349 146.795L596.518 218.708" stroke="black" strokeWidth="4.70244"/>
<path opacity="0.12" d="M776.18 146.793L686.349 218.706" stroke="black" strokeWidth="4.70244"/>
<path opacity="0.6" d="M776.18 146.795L866.011 218.708" stroke="black" strokeWidth="4.70244"/>
<path opacity="0.78" d="M866.011 146.793L955.842 218.706" stroke="black" strokeWidth="4.70244"/>
<path opacity="0.26" d="M955.842 146.793L1045.67 218.706" stroke="black" strokeWidth="4.70244"/>
<path opacity="0.91" d="M1135.5 146.793L1045.67 218.706" stroke="black" strokeWidth="4.70244"/>
<path opacity="0.63" d="M1135.5 146.793L1225.34 218.706" stroke="black" strokeWidth="4.70244"/>
<path opacity="0.52" d="M1315.17 146.793L1225.33 218.706" stroke="black" strokeWidth="4.70244"/>
<path opacity="0.24" d="M1315.17 146.793L1405 218.706" stroke="black" strokeWidth="4.70244"/>
<path opacity="0.78" d="M1405 146.793L1494.83 218.706" stroke="black" strokeWidth="4.70244"/>
<path opacity="0.83" d="M1494.83 146.793L1584.66 218.706" stroke="black" strokeWidth="4.70244"/>
<path opacity="0.66" d="M1584.66 146.793L1674.49 218.706" stroke="black" strokeWidth="4.70244"/>
<path opacity="0.51" d="M1674.49 146.793L1764.32 218.706" stroke="black" strokeWidth="4.70244"/>
<path opacity="0.65" d="M1854.15 146.793L1764.32 218.706" stroke="black" strokeWidth="4.70244"/>
<path opacity="0.34" d="M1854.15 146.793L1943.98 218.706" stroke="black" strokeWidth="4.70244"/>
<path opacity="0.56" d="M-32.3008 218.705L57.5303 290.618" stroke="black" strokeWidth="4.70244"/>
<path opacity="0.62" d="M147.361 218.705L57.5303 290.618" stroke="black" strokeWidth="4.70244"/>
<path opacity="0.94" d="M147.361 218.705L237.192 290.618" stroke="black" strokeWidth="4.70244"/>
<path opacity="0.08" d="M327.023 218.705L237.192 290.618" stroke="black" strokeWidth="4.70244"/>
<path opacity="0.95" d="M416.855 218.705L327.023 290.618" stroke="black" strokeWidth="4.70244"/>
<path opacity="0.8" d="M416.854 218.705L506.686 290.618" stroke="black" strokeWidth="4.70244"/>
<path opacity="0.4" d="M596.517 218.705L506.686 290.618" stroke="black" strokeWidth="4.70244"/>
<path opacity="0.75" d="M596.518 218.705L686.349 290.618" stroke="black" strokeWidth="4.70244"/>
<path opacity="0.83" d="M686.349 218.705L776.18 290.618" stroke="black" strokeWidth="4.70244"/>
<path opacity="0.92" d="M776.18 218.705L866.011 290.618" stroke="black" strokeWidth="4.70244"/>
<path opacity="0.32" d="M955.842 218.705L866.011 290.618" stroke="black" strokeWidth="4.70244"/>
<path opacity="0.67" d="M955.842 218.705L1045.67 290.618" stroke="black" strokeWidth="4.70244"/>
<path opacity="0.48" d="M1045.67 218.705L1135.5 290.618" stroke="black" strokeWidth="4.70244"/>
<path opacity="0.57" d="M1135.5 218.705L1225.34 290.618" stroke="black" strokeWidth="4.70244"/>
<path opacity="0.3" d="M1225.33 218.705L1315.17 290.618" stroke="black" strokeWidth="4.70244"/>
<path opacity="0.32" d="M1405 218.705L1315.17 290.618" stroke="black" strokeWidth="4.70244"/>
<path opacity="0.76" d="M1405 218.705L1494.83 290.618" stroke="black" strokeWidth="4.70244"/>
<path opacity="0.37" d="M1494.83 218.705L1584.66 290.618" stroke="black" strokeWidth="4.70244"/>
<path opacity="0.16" d="M1584.66 218.705L1674.49 290.618" stroke="black" strokeWidth="4.70244"/>
<path opacity="0.87" d="M1764.32 218.705L1674.49 290.618" stroke="black" strokeWidth="4.70244"/>
<path opacity="0.57" d="M1854.15 218.705L1764.32 290.618" stroke="black" strokeWidth="4.70244"/>
<path opacity="0.99" d="M1854.15 218.705L1943.98 290.618" stroke="black" strokeWidth="4.70244"/>
<path opacity="0.85" d="M-32.3008 290.62L57.5303 362.533" stroke="black" strokeWidth="4.70244"/>
<path opacity="0.45" d="M57.5303 290.62L147.361 362.533" stroke="black" strokeWidth="4.70244"/>
<path opacity="0.72" d="M147.361 290.62L237.192 362.533" stroke="black" strokeWidth="4.70244"/>
<path opacity="0.63" d="M237.192 290.62L327.023 362.533" stroke="black" strokeWidth="4.70244"/>
<path opacity="0.83" d="M327.023 290.62L416.855 362.533" stroke="black" strokeWidth="4.70244"/>
<path opacity="0.08" d="M416.854 290.62L506.686 362.533" stroke="black" strokeWidth="4.70244"/>
<path opacity="0.95" d="M506.686 290.62L596.517 362.533" stroke="black" strokeWidth="4.70244"/>
<path opacity="0.45" d="M686.349 290.62L596.518 362.533" stroke="black" strokeWidth="4.70244"/>
<path opacity="0.86" d="M686.349 290.62L776.18 362.533" stroke="black" strokeWidth="4.70244"/>
<path opacity="0.63" d="M776.18 290.62L866.011 362.533" stroke="black" strokeWidth="4.70244"/>
<path opacity="0.9" d="M866.011 290.62L955.842 362.533" stroke="black" strokeWidth="4.70244"/>
<path opacity="0.12" d="M955.842 290.62L1045.67 362.533" stroke="black" strokeWidth="4.70244"/>
<path opacity="0.75" d="M1045.67 290.62L1135.5 362.533" stroke="black" strokeWidth="4.70244"/>
<path opacity="0.29" d="M1225.34 290.62L1135.5 362.533" stroke="black" strokeWidth="4.70244"/>
<path opacity="0.91" d="M1315.17 290.62L1225.33 362.533" stroke="black" strokeWidth="4.70244"/>
<path opacity="0.37" d="M1405 290.62L1315.17 362.533" stroke="black" strokeWidth="4.70244"/>
<path opacity="0.63" d="M1405 290.62L1494.83 362.533" stroke="black" strokeWidth="4.70244"/>
<path opacity="0.21" d="M1584.66 290.62L1494.83 362.533" stroke="black" strokeWidth="4.70244"/>
<path opacity="0.77" d="M1584.66 290.62L1674.49 362.533" stroke="black" strokeWidth="4.70244"/>
<path opacity="0.81" d="M1674.49 290.62L1764.32 362.533" stroke="black" strokeWidth="4.70244"/>
<path opacity="0.75" d="M1764.32 290.62L1854.15 362.533" stroke="black" strokeWidth="4.70244"/>
<path opacity="0.54" d="M1943.98 290.62L1854.15 362.533" stroke="black" strokeWidth="4.70244"/>
<path opacity="0.12" d="M-32.3008 362.532L57.5303 434.445" stroke="black" strokeWidth="4.70244"/>
<path opacity="0.2" d="M147.361 362.532L57.5303 434.445" stroke="black" strokeWidth="4.70244"/>
<path opacity="0.69" d="M147.361 362.532L237.192 434.445" stroke="black" strokeWidth="4.70244"/>
<path opacity="0.45" d="M237.193 362.532L327.024 434.445" stroke="black" strokeWidth="4.70244"/>
<path opacity="0.86" d="M327.023 362.532L416.855 434.445" stroke="black" strokeWidth="4.70244"/>
<path opacity="0.67" d="M416.854 362.532L506.686 434.445" stroke="black" strokeWidth="4.70244"/>
<path d="M506.686 362.532L596.517 434.445" stroke="black" strokeWidth="4.70244"/>
<path opacity="0.49" d="M596.518 362.532L686.349 434.445" stroke="black" strokeWidth="4.70244"/>
<path opacity="0.62" d="M776.18 362.532L686.349 434.445" stroke="black" strokeWidth="4.70244"/>
<path opacity="0.14" d="M776.18 362.532L866.011 434.445" stroke="black" strokeWidth="4.70244"/>
<path opacity="0.35" d="M866.01 362.532L955.841 434.445" stroke="black" strokeWidth="4.70244"/>
<path opacity="0.88" d="M1045.67 362.532L955.842 434.445" stroke="black" strokeWidth="4.70244"/>
<path opacity="0.72" d="M1045.67 362.532L1135.5 434.445" stroke="black" strokeWidth="4.70244"/>
<path opacity="0.46" d="M1135.5 362.532L1225.34 434.445" stroke="black" strokeWidth="4.70244"/>
<path opacity="0.61" d="M1225.33 362.532L1315.17 434.445" stroke="black" strokeWidth="4.70244"/>
<path opacity="0.77" d="M1315.17 362.532L1405 434.445" stroke="black" strokeWidth="4.70244"/>
<path opacity="0.3" d="M1405 362.532L1494.83 434.445" stroke="black" strokeWidth="4.70244"/>
<path opacity="0.87" d="M1584.66 362.532L1494.83 434.445" stroke="black" strokeWidth="4.70244"/>
<path opacity="0.48" d="M1674.49 362.532L1584.66 434.445" stroke="black" strokeWidth="4.70244"/>
<path opacity="0.49" d="M1674.49 362.532L1764.32 434.445" stroke="black" strokeWidth="4.70244"/>
<path opacity="0.5" d="M1764.32 362.532L1854.15 434.445" stroke="black" strokeWidth="4.70244"/>
<path opacity="0.92" d="M1854.15 362.532L1943.98 434.445" stroke="black" strokeWidth="4.70244"/>
<path opacity="0.22" d="M57.5303 434.444L-32.3008 506.357" stroke="black" strokeWidth="4.70244"/>
<path opacity="0.91" d="M57.5303 434.444L147.361 506.357" stroke="black" strokeWidth="4.70244"/>
<path opacity="0.81" d="M147.361 434.444L237.192 506.357" stroke="black" strokeWidth="4.70244"/>
<path opacity="0.63" d="M237.193 434.444L327.024 506.357" stroke="black" strokeWidth="4.70244"/>
<path opacity="0.16" d="M416.855 434.444L327.023 506.357" stroke="black" strokeWidth="4.70244"/>
<path opacity="0.38" d="M416.854 434.444L506.686 506.357" stroke="black" strokeWidth="4.70244"/>
<path opacity="0.18" d="M506.686 434.444L596.517 506.357" stroke="black" strokeWidth="4.70244"/>
<path opacity="0.14" d="M596.518 434.444L686.349 506.357" stroke="black" strokeWidth="4.70244"/>
<path opacity="0.68" d="M686.349 434.444L776.18 506.357" stroke="black" strokeWidth="4.70244"/>
<path opacity="0.62" d="M776.18 434.444L866.011 506.357" stroke="black" strokeWidth="4.70244"/>
<path opacity="0.09" d="M955.841 434.444L866.01 506.357" stroke="black" strokeWidth="4.70244"/>
<path opacity="0.99" d="M955.842 434.444L1045.67 506.357" stroke="black" strokeWidth="4.70244"/>
<path opacity="0.99" d="M1045.67 434.444L1135.5 506.357" stroke="black" strokeWidth="4.70244"/>
<path opacity="0.25" d="M1225.34 434.444L1135.5 506.357" stroke="black" strokeWidth="4.70244"/>
<path opacity="0.88" d="M1225.33 434.444L1315.17 506.357" stroke="black" strokeWidth="4.70244"/>
<path opacity="0.47" d="M1315.17 434.444L1405 506.357" stroke="black" strokeWidth="4.70244"/>
<path opacity="0.41" d="M1405 434.444L1494.83 506.357" stroke="black" strokeWidth="4.70244"/>
<path opacity="0.66" d="M1494.83 434.444L1584.66 506.357" stroke="black" strokeWidth="4.70244"/>
<path opacity="0.65" d="M1584.66 434.444L1674.49 506.357" stroke="black" strokeWidth="4.70244"/>
<path opacity="0.56" d="M1674.49 434.444L1764.32 506.357" stroke="black" strokeWidth="4.70244"/>
<path opacity="0.45" d="M1764.32 434.444L1854.15 506.357" stroke="black" strokeWidth="4.70244"/>
<path opacity="0.7" d="M1943.98 434.444L1854.15 506.357" stroke="black" strokeWidth="4.70244"/>
<path opacity="0.19" d="M57.5303 506.358L-32.3008 578.271" stroke="black" strokeWidth="4.70244"/>
<path opacity="0.81" d="M57.5303 506.358L147.361 578.271" stroke="black" strokeWidth="4.70244"/>
<path opacity="0.07" d="M147.361 506.358L237.192 578.271" stroke="black" strokeWidth="4.70244"/>
<path opacity="0.17" d="M237.193 506.358L327.024 578.271" stroke="black" strokeWidth="4.70244"/>
<path opacity="0.58" d="M327.023 506.358L416.855 578.271" stroke="black" strokeWidth="4.70244"/>
<path opacity="0.39" d="M416.854 506.358L506.686 578.271" stroke="black" strokeWidth="4.70244"/>
<path opacity="0.85" d="M506.686 506.358L596.517 578.271" stroke="black" strokeWidth="4.70244"/>
<path opacity="0.37" d="M596.518 506.358L686.349 578.271" stroke="black" strokeWidth="4.70244"/>
<path opacity="0.91" d="M776.18 506.358L686.349 578.271" stroke="black" strokeWidth="4.70244"/>
<path opacity="0.07" d="M776.18 506.358L866.011 578.271" stroke="black" strokeWidth="4.70244"/>
<path opacity="0.45" d="M866.01 506.358L955.841 578.271" stroke="black" strokeWidth="4.70244"/>
<path opacity="0.34" d="M955.842 506.358L1045.67 578.271" stroke="black" strokeWidth="4.70244"/>
<path opacity="0.76" d="M1045.67 506.358L1135.5 578.271" stroke="black" strokeWidth="4.70244"/>
<path opacity="0.32" d="M1135.5 506.358L1225.34 578.271" stroke="black" strokeWidth="4.70244"/>
<path opacity="0.53" d="M1225.33 506.358L1315.17 578.271" stroke="black" strokeWidth="4.70244"/>
<path opacity="0.85" d="M1315.17 506.358L1405 578.271" stroke="black" strokeWidth="4.70244"/>
<path opacity="0.23" d="M1405 506.358L1494.83 578.271" stroke="black" strokeWidth="4.70244"/>
<path opacity="0.2" d="M1494.83 506.358L1584.66 578.271" stroke="black" strokeWidth="4.70244"/>
<path opacity="0.52" d="M1584.66 506.358L1674.49 578.271" stroke="black" strokeWidth="4.70244"/>
<path opacity="0.08" d="M1674.49 506.358L1764.32 578.271" stroke="black" strokeWidth="4.70244"/>
<path opacity="0.73" d="M1854.15 506.358L1764.32 578.271" stroke="black" strokeWidth="4.70244"/>
<path opacity="0.45" d="M1854.15 506.358L1943.98 578.271" stroke="black" strokeWidth="4.70244"/>
<path opacity="0.48" d="M-32.3008 578.271L57.5303 650.183" stroke="black" strokeWidth="4.70244"/>
<path opacity="0.08" d="M57.5303 578.271L147.361 650.183" stroke="black" strokeWidth="4.70244"/>
<path opacity="0.68" d="M147.361 578.271L237.192 650.183" stroke="black" strokeWidth="4.70244"/>
<path opacity="0.97" d="M327.024 578.271L237.193 650.183" stroke="black" strokeWidth="4.70244"/>
<path opacity="0.93" d="M416.855 578.271L327.023 650.183" stroke="black" strokeWidth="4.70244"/>
<path opacity="0.18" d="M506.686 578.271L416.854 650.183" stroke="black" strokeWidth="4.70244"/>
<path opacity="0.24" d="M506.686 578.271L596.517 650.183" stroke="black" strokeWidth="4.70244"/>
<path opacity="0.45" d="M596.518 578.271L686.349 650.183" stroke="black" strokeWidth="4.70244"/>
<path opacity="0.89" d="M776.18 578.271L686.349 650.183" stroke="black" strokeWidth="4.70244"/>
<path opacity="0.94" d="M776.18 578.271L866.011 650.183" stroke="black" strokeWidth="4.70244"/>
<path opacity="0.24" d="M866.01 578.271L955.841 650.183" stroke="black" strokeWidth="4.70244"/>
<path opacity="0.15" d="M955.842 578.271L1045.67 650.183" stroke="black" strokeWidth="4.70244"/>
<path opacity="0.55" d="M1135.5 578.271L1045.67 650.183" stroke="black" strokeWidth="4.70244"/>
<path opacity="0.99" d="M1135.5 578.271L1225.34 650.183" stroke="black" strokeWidth="4.70244"/>
<path opacity="0.74" d="M1225.33 578.271L1315.17 650.183" stroke="black" strokeWidth="4.70244"/>
<path opacity="0.39" d="M1405 578.271L1315.17 650.183" stroke="black" strokeWidth="4.70244"/>
<path opacity="0.49" d="M1405 578.271L1494.83 650.183" stroke="black" strokeWidth="4.70244"/>
<path opacity="0.73" d="M1494.83 578.271L1584.66 650.183" stroke="black" strokeWidth="4.70244"/>
<path opacity="0.11" d="M1674.49 578.271L1584.66 650.183" stroke="black" strokeWidth="4.70244"/>
<path opacity="0.2" d="M1674.49 578.271L1764.32 650.183" stroke="black" strokeWidth="4.70244"/>
<path opacity="0.41" d="M1764.32 578.271L1854.15 650.183" stroke="black" strokeWidth="4.70244"/>
<path opacity="0.75" d="M1943.98 578.271L1854.15 650.183" stroke="black" strokeWidth="4.70244"/>
<path opacity="0.6" d="M57.5313 650.184L-32.2998 722.096" stroke="black" strokeWidth="4.70244"/>
<path opacity="0.42" d="M147.361 650.184L57.5303 722.096" stroke="black" strokeWidth="4.70244"/>
<path opacity="0.61" d="M147.361 650.184L237.192 722.096" stroke="black" strokeWidth="4.70244"/>
<path opacity="0.58" d="M237.192 650.184L327.023 722.096" stroke="black" strokeWidth="4.70244"/>
<path opacity="0.77" d="M327.023 650.184L416.855 722.096" stroke="black" strokeWidth="4.70244"/>
<path opacity="0.16" d="M506.686 650.184L416.854 722.096" stroke="black" strokeWidth="4.70244"/>
<path opacity="0.3" d="M506.686 650.184L596.517 722.096" stroke="black" strokeWidth="4.70244"/>
<path opacity="0.21" d="M596.518 650.184L686.349 722.096" stroke="black" strokeWidth="4.70244"/>
<path opacity="0.93" d="M686.349 650.184L776.18 722.096" stroke="black" strokeWidth="4.70244"/>
<path opacity="0.2" d="M776.18 650.184L866.011 722.096" stroke="black" strokeWidth="4.70244"/>
<path opacity="0.44" d="M866.011 650.184L955.842 722.096" stroke="black" strokeWidth="4.70244"/>
<path opacity="0.78" d="M955.842 650.184L1045.67 722.096" stroke="black" strokeWidth="4.70244"/>
<path opacity="0.76" d="M1045.67 650.184L1135.5 722.096" stroke="black" strokeWidth="4.70244"/>
<path opacity="0.45" d="M1225.34 650.184L1135.5 722.096" stroke="black" strokeWidth="4.70244"/>
<path opacity="0.48" d="M1225.33 650.184L1315.17 722.096" stroke="black" strokeWidth="4.70244"/>
<path opacity="0.5" d="M1405 650.184L1315.17 722.096" stroke="black" strokeWidth="4.70244"/>
<path opacity="0.78" d="M1494.83 650.184L1405 722.096" stroke="black" strokeWidth="4.70244"/>
<path opacity="0.08" d="M1494.83 650.184L1584.66 722.096" stroke="black" strokeWidth="4.70244"/>
<path opacity="0.57" d="M1584.66 650.184L1674.49 722.096" stroke="black" strokeWidth="4.70244"/>
<path opacity="0.49" d="M1674.49 650.184L1764.32 722.096" stroke="black" strokeWidth="4.70244"/>
<path opacity="0.93" d="M1764.32 650.184L1854.15 722.096" stroke="black" strokeWidth="4.70244"/>
<path opacity="0.44" d="M1854.15 650.184L1943.98 722.096" stroke="black" strokeWidth="4.70244"/>
<path opacity="0.89" d="M-32.3008 722.096L57.5303 794.009" stroke="black" strokeWidth="4.70244"/>
<path opacity="0.27" d="M57.5303 722.096L147.361 794.009" stroke="black" strokeWidth="4.70244"/>
<path opacity="0.39" d="M147.361 722.096L237.192 794.009" stroke="black" strokeWidth="4.70244"/>
<path opacity="0.25" d="M327.023 722.096L237.192 794.009" stroke="black" strokeWidth="4.70244"/>
<path opacity="0.41" d="M327.023 722.096L416.855 794.009" stroke="black" strokeWidth="4.70244"/>
<path opacity="0.16" d="M416.854 722.096L506.686 794.009" stroke="black" strokeWidth="4.70244"/>
<path opacity="0.15" d="M506.686 722.096L596.517 794.009" stroke="black" strokeWidth="4.70244"/>
<path opacity="0.87" d="M686.349 722.096L596.518 794.009" stroke="black" strokeWidth="4.70244"/>
<path opacity="0.66" d="M686.349 722.096L776.18 794.009" stroke="black" strokeWidth="4.70244"/>
<path opacity="0.07" d="M776.18 722.096L866.011 794.009" stroke="black" strokeWidth="4.70244"/>
<path opacity="0.14" d="M866.011 722.096L955.842 794.009" stroke="black" strokeWidth="4.70244"/>
<path opacity="0.69" d="M955.842 722.096L1045.67 794.009" stroke="black" strokeWidth="4.70244"/>
<path opacity="0.59" d="M1135.5 722.096L1045.67 794.009" stroke="black" strokeWidth="4.70244"/>
<path opacity="0.9" d="M1225.34 722.096L1135.5 794.009" stroke="black" strokeWidth="4.70244"/>
<path opacity="0.09" d="M1315.17 722.096L1225.33 794.009" stroke="black" strokeWidth="4.70244"/>
<path opacity="0.67" d="M1405 722.096L1315.17 794.009" stroke="black" strokeWidth="4.70244"/>
<path opacity="0.74" d="M1494.83 722.096L1405 794.009" stroke="black" strokeWidth="4.70244"/>
<path opacity="0.4" d="M1584.66 722.096L1494.83 794.009" stroke="black" strokeWidth="4.70244"/>
<path opacity="0.72" d="M1584.66 722.096L1674.49 794.009" stroke="black" strokeWidth="4.70244"/>
<path d="M1764.32 722.096L1674.49 794.009" stroke="black" strokeWidth="4.70244"/>
<path opacity="0.69" d="M1854.15 722.096L1764.32 794.009" stroke="black" strokeWidth="4.70244"/>
<path opacity="0.59" d="M1854.15 722.096L1943.98 794.009" stroke="black" strokeWidth="4.70244"/>
<path opacity="0.98" d="M57.5303 794.01L-32.3008 865.923" stroke="black" strokeWidth="4.70244"/>
<path opacity="0.11" d="M57.5303 794.01L147.361 865.923" stroke="black" strokeWidth="4.70244"/>
<path opacity="0.77" d="M147.361 794.01L237.192 865.923" stroke="black" strokeWidth="4.70244"/>
<path opacity="0.82" d="M237.193 794.009L327.024 865.922" stroke="black" strokeWidth="4.70244"/>
<path opacity="0.35" d="M327.023 794.009L416.855 865.922" stroke="black" strokeWidth="4.70244"/>
<path opacity="0.6" d="M416.854 794.01L506.686 865.923" stroke="black" strokeWidth="4.70244"/>
<path opacity="0.5" d="M506.686 794.009L596.517 865.922" stroke="black" strokeWidth="4.70244"/>
<path opacity="0.72" d="M596.518 794.01L686.349 865.923" stroke="black" strokeWidth="4.70244"/>
<path opacity="0.09" d="M686.349 794.01L776.18 865.923" stroke="black" strokeWidth="4.70244"/>
<path opacity="0.75" d="M776.18 794.01L866.011 865.923" stroke="black" strokeWidth="4.70244"/>
<path opacity="0.1" d="M866.01 794.009L955.841 865.922" stroke="black" strokeWidth="4.70244"/>
<path opacity="0.89" d="M1045.67 794.009L955.842 865.922" stroke="black" strokeWidth="4.70244"/>
<path opacity="0.52" d="M1045.67 794.009L1135.5 865.922" stroke="black" strokeWidth="4.70244"/>
<path opacity="0.48" d="M1135.5 794.01L1225.34 865.923" stroke="black" strokeWidth="4.70244"/>
<path opacity="0.08" d="M1225.33 794.009L1315.17 865.922" stroke="black" strokeWidth="4.70244"/>
<path opacity="0.51" d="M1315.17 794.009L1405 865.922" stroke="black" strokeWidth="4.70244"/>
<path opacity="0.74" d="M1405 794.01L1494.83 865.923" stroke="black" strokeWidth="4.70244"/>
<path opacity="0.15" d="M1494.83 794.009L1584.66 865.922" stroke="black" strokeWidth="4.70244"/>
<path opacity="0.19" d="M1674.49 794.009L1584.66 865.922" stroke="black" strokeWidth="4.70244"/>
<path opacity="0.93" d="M1764.32 794.009L1674.49 865.922" stroke="black" strokeWidth="4.70244"/>
<path opacity="0.34" d="M1764.32 794.009L1854.15 865.922" stroke="black" strokeWidth="4.70244"/>
<path opacity="0.91" d="M1854.15 794.01L1943.98 865.923" stroke="black" strokeWidth="4.70244"/>
<path opacity="0.44" d="M-32.3008 865.922L57.5303 937.835" stroke="black" strokeWidth="4.70244"/>
<path opacity="0.53" d="M147.361 865.922L57.5303 937.835" stroke="black" strokeWidth="4.70244"/>
<path opacity="0.65" d="M147.361 865.922L237.192 937.835" stroke="black" strokeWidth="4.70244"/>
<path opacity="0.44" d="M237.193 865.922L327.024 937.835" stroke="black" strokeWidth="4.70244"/>
<path opacity="0.67" d="M327.023 865.922L416.855 937.835" stroke="black" strokeWidth="4.70244"/>
<path opacity="0.76" d="M506.686 865.922L416.854 937.835" stroke="black" strokeWidth="4.70244"/>
<path opacity="0.8" d="M506.686 865.922L596.517 937.835" stroke="black" strokeWidth="4.70244"/>
<path opacity="0.79" d="M596.518 865.922L686.349 937.835" stroke="black" strokeWidth="4.70244"/>
<path opacity="0.73" d="M686.349 865.922L776.18 937.835" stroke="black" strokeWidth="4.70244"/>
<path opacity="0.7" d="M776.18 865.922L866.011 937.835" stroke="black" strokeWidth="4.70244"/>
<path opacity="0.24" d="M866.01 865.922L955.841 937.835" stroke="black" strokeWidth="4.70244"/>
<path opacity="0.84" d="M955.842 865.922L1045.67 937.835" stroke="black" strokeWidth="4.70244"/>
<path opacity="0.23" d="M1045.67 865.922L1135.5 937.835" stroke="black" strokeWidth="4.70244"/>
<path opacity="0.32" d="M1135.5 865.922L1225.34 937.835" stroke="black" strokeWidth="4.70244"/>
<path opacity="0.71" d="M1225.33 865.922L1315.17 937.835" stroke="black" strokeWidth="4.70244"/>
<path opacity="0.11" d="M1315.17 865.922L1405 937.835" stroke="black" strokeWidth="4.70244"/>
<path opacity="0.66" d="M1405 865.922L1494.83 937.835" stroke="black" strokeWidth="4.70244"/>
<path opacity="0.24" d="M1584.66 865.922L1494.83 937.835" stroke="black" strokeWidth="4.70244"/>
<path opacity="0.82" d="M1674.49 865.922L1584.66 937.835" stroke="black" strokeWidth="4.70244"/>
<path opacity="0.79" d="M1674.49 865.922L1764.32 937.835" stroke="black" strokeWidth="4.70244"/>
<path opacity="0.37" d="M1764.32 865.922L1854.15 937.835" stroke="black" strokeWidth="4.70244"/>
<path opacity="0.63" d="M1854.15 865.922L1943.98 937.835" stroke="black" strokeWidth="4.70244"/>
<path opacity="0.42" d="M-32.3008 937.835L57.5303 1009.75" stroke="black" strokeWidth="4.70244"/>
<path opacity="0.25" d="M147.361 937.835L57.5303 1009.75" stroke="black" strokeWidth="4.70244"/>
<path opacity="0.72" d="M147.361 937.835L237.192 1009.75" stroke="black" strokeWidth="4.70244"/>
<path opacity="0.24" d="M327.024 937.835L237.193 1009.75" stroke="black" strokeWidth="4.70244"/>
<path opacity="0.22" d="M416.855 937.835L327.023 1009.75" stroke="black" strokeWidth="4.70244"/>
<path opacity="0.65" d="M416.854 937.835L506.686 1009.75" stroke="black" strokeWidth="4.70244"/>
<path opacity="0.55" d="M506.686 937.835L596.517 1009.75" stroke="black" strokeWidth="4.70244"/>
<path opacity="0.69" d="M596.518 937.835L686.349 1009.75" stroke="black" strokeWidth="4.70244"/>
<path opacity="0.35" d="M686.349 937.835L776.18 1009.75" stroke="black" strokeWidth="4.70244"/>
<path opacity="0.71" d="M776.18 937.835L866.011 1009.75" stroke="black" strokeWidth="4.70244"/>
<path opacity="0.86" d="M866.01 937.835L955.841 1009.75" stroke="black" strokeWidth="4.70244"/>
<path opacity="0.23" d="M955.842 937.835L1045.67 1009.75" stroke="black" strokeWidth="4.70244"/>
<path opacity="0.65" d="M1045.67 937.835L1135.5 1009.75" stroke="black" strokeWidth="4.70244"/>
<path opacity="0.24" d="M1135.5 937.835L1225.34 1009.75" stroke="black" strokeWidth="4.70244"/>
<path opacity="0.89" d="M1315.17 937.835L1225.33 1009.75" stroke="black" strokeWidth="4.70244"/>
<path opacity="0.35" d="M1405 937.835L1315.17 1009.75" stroke="black" strokeWidth="4.70244"/>
<path opacity="0.11" d="M1405 937.835L1494.83 1009.75" stroke="black" strokeWidth="4.70244"/>
<path opacity="0.2" d="M1494.83 937.835L1584.66 1009.75" stroke="black" strokeWidth="4.70244"/>
<path opacity="0.6" d="M1584.66 937.835L1674.49 1009.75" stroke="black" strokeWidth="4.70244"/>
<path opacity="0.32" d="M1674.49 937.835L1764.32 1009.75" stroke="black" strokeWidth="4.70244"/>
<path opacity="0.22" d="M1764.32 937.835L1854.15 1009.75" stroke="black" strokeWidth="4.70244"/>
<path opacity="0.79" d="M1854.15 937.835L1943.98 1009.75" stroke="black" strokeWidth="4.70244"/>
<path opacity="0.53" d="M97.3213 956.402L7.49023 1028.32" stroke="black" strokeWidth="4.70244"/>
<path opacity="0.87" d="M187.153 956.402L97.3223 1028.32" stroke="black" strokeWidth="4.70244"/>
<path opacity="0.43" d="M237.192 1009.75L147.361 1081.66" stroke="black" strokeWidth="4.70244"/>
<path opacity="0.31" d="M237.193 1009.75L327.024 1081.66" stroke="black" strokeWidth="4.70244"/>
<path opacity="0.45" d="M327.023 1009.75L416.855 1081.66" stroke="black" strokeWidth="4.70244"/>
<path opacity="0.61" d="M506.686 1009.75L416.854 1081.66" stroke="black" strokeWidth="4.70244"/>
<path opacity="0.19" d="M506.686 1009.75L596.517 1081.66" stroke="black" strokeWidth="4.70244"/>
<path opacity="0.6" d="M596.518 1009.75L686.349 1081.66" stroke="black" strokeWidth="4.70244"/>
<path opacity="0.92" d="M686.349 1009.75L776.18 1081.66" stroke="black" strokeWidth="4.70244"/>
<path opacity="0.32" d="M776.18 1009.75L866.011 1081.66" stroke="black" strokeWidth="4.70244"/>
<path opacity="0.73" d="M955.841 1009.75L866.01 1081.66" stroke="black" strokeWidth="4.70244"/>
<path opacity="0.92" d="M955.842 1009.75L1045.67 1081.66" stroke="black" strokeWidth="4.70244"/>
<path opacity="0.93" d="M1045.67 1009.75L1135.5 1081.66" stroke="black" strokeWidth="4.70244"/>
<path opacity="0.34" d="M1135.5 1009.75L1225.34 1081.66" stroke="black" strokeWidth="4.70244"/>
<path opacity="0.13" d="M1225.33 1009.75L1315.17 1081.66" stroke="black" strokeWidth="4.70244"/>
<path opacity="0.99" d="M1315.17 1009.75L1405 1081.66" stroke="black" strokeWidth="4.70244"/>
<path opacity="0.37" d="M1494.83 1009.75L1405 1081.66" stroke="black" strokeWidth="4.70244"/>
<path opacity="0.17" d="M1494.83 1009.75L1584.66 1081.66" stroke="black" strokeWidth="4.70244"/>
<path opacity="0.92" d="M1584.66 1009.75L1674.49 1081.66" stroke="black" strokeWidth="4.70244"/>
<path opacity="0.59" d="M1674.49 1009.75L1764.32 1081.66" stroke="black" strokeWidth="4.70244"/>
<path opacity="0.08" d="M1764.32 1009.75L1854.15 1081.66" stroke="black" strokeWidth="4.70244"/>
</g>
</g>
</svg>
