<svg width="211" height="194" viewBox="0 0 211 194" fill="none" xmlns="http://www.w3.org/2000/svg">
<path d="M58.2266 172.438C72.5758 177.427 88.2519 169.838 93.2401 155.489C98.2283 141.14 90.6398 125.464 76.2906 120.475C61.9414 115.487 46.2653 123.076 41.2771 137.425C36.2889 151.774 43.8774 167.45 58.2266 172.438Z" fill="#2B305E"/>
<path d="M39.9795 98.8466C54.3287 103.835 70.0048 96.2462 74.993 81.897C79.9813 67.5478 72.3927 51.8718 58.0435 46.8835C43.6943 41.8953 28.0183 49.4839 23.03 63.8331C18.0418 78.1823 25.6304 93.8583 39.9795 98.8466Z" fill="#2B305E"/>
<path d="M136.939 132.554C151.288 137.542 166.964 129.953 171.953 115.604C176.941 101.255 169.352 85.5788 155.003 80.5906C140.654 75.6024 124.978 83.1909 119.989 97.5401C115.001 111.889 122.59 127.565 136.939 132.554Z" fill="#C9D6EA"/>
<path d="M164.808 69.9959C171.321 72.2602 178.437 68.8156 180.701 62.3021C182.966 55.7886 179.521 48.6728 173.008 46.4085C166.494 44.1442 159.378 47.5888 157.114 54.1023C154.85 60.6158 158.294 67.7316 164.808 69.9959Z" fill="#C9D6EA"/>
</svg>
