<svg width="6" height="80" viewBox="0 0 6 80" fill="none" xmlns="http://www.w3.org/2000/svg">
<path d="M2.90918 0.266602L0.0224283 5.2666H5.79593L2.90918 0.266602ZM2.90918 79.3403L5.79593 74.3403H0.0224283L2.90918 79.3403ZM2.40918 6.19713V10.1508H3.40918V6.19713H2.40918ZM2.40918 14.1045V18.0582H3.40918V14.1045H2.40918ZM2.40918 22.0119V25.9656H3.40918V22.0119H2.40918ZM2.40918 29.9192V33.8729H3.40918V29.9192H2.40918ZM2.40918 37.8266V41.7803H3.40918V37.8266H2.40918ZM2.40918 45.734V49.6877H3.40918V45.734H2.40918ZM2.40918 53.6414V57.595H3.40918V53.6414H2.40918ZM2.40918 61.5487V65.5024H3.40918V61.5487H2.40918ZM2.40918 69.4561V73.4098H3.40918V69.4561H2.40918Z" fill="black"/>
</svg>
