<svg width="173" height="195" viewBox="0 0 173 195" fill="none" xmlns="http://www.w3.org/2000/svg">
<path d="M138.574 169.718C148.608 158.312 147.496 140.931 136.09 130.897C124.685 120.863 107.304 121.974 97.2695 133.38C87.2351 144.786 88.3468 162.167 99.7526 172.201C111.158 182.236 128.539 181.124 138.574 169.718Z" fill="#2B305E"/>
<path d="M63.5364 158.845C73.5708 147.439 72.4591 130.058 61.0533 120.024C49.6475 109.99 32.2668 111.101 22.2324 122.507C12.198 133.913 13.3097 151.294 24.7155 161.328C36.1213 171.362 53.502 170.251 63.5364 158.845Z" fill="#2B305E"/>
<path d="M131.341 81.7746C141.376 70.3688 140.264 52.9881 128.858 42.9537C117.452 32.9193 100.071 34.031 90.0371 45.4368C80.0027 56.8426 81.1144 74.2234 92.5202 84.2578C103.926 94.2922 121.307 93.1804 131.341 81.7746Z" fill="#C9D6EA"/>
<path d="M83.9261 32.3585C88.481 27.1811 87.9764 19.2915 82.799 14.7366C77.6216 10.1817 69.732 10.6863 65.1771 15.8637C60.6222 21.0412 61.1268 28.9308 66.3042 33.4857C71.4816 38.0406 79.3712 37.5359 83.9261 32.3585Z" fill="#C9D6EA"/>
</svg>
