<svg width="384" height="220" viewBox="0 0 384 220" fill="none" xmlns="http://www.w3.org/2000/svg">
<circle cx="10.9025" cy="40.6614" r="7.98187" transform="rotate(-60 10.9025 40.6614)" fill="white"/>
<circle cx="52.3781" cy="64.6068" r="7.98187" transform="rotate(-60 52.3781 64.6068)" fill="white"/>
<circle cx="93.8536" cy="88.5521" r="7.98187" transform="rotate(-60 93.8536 88.5521)" fill="white"/>
<circle cx="135.327" cy="112.498" r="7.98187" transform="rotate(-60 135.327 112.498)" fill="white"/>
<circle cx="176.804" cy="136.444" r="7.98187" transform="rotate(-60 176.804 136.444)" fill="white"/>
<circle cx="218.279" cy="160.389" r="7.98187" transform="rotate(-60 218.279 160.389)" fill="white"/>
<circle cx="259.753" cy="184.334" r="7.98187" transform="rotate(-60 259.753 184.334)" fill="white"/>
<circle cx="301.229" cy="208.281" r="7.98187" transform="rotate(-60 301.229 208.281)" fill="white"/>
<circle cx="34.8488" cy="-0.815124" r="7.98187" transform="rotate(-60 34.8488 -0.815124)" fill="white"/>
<circle cx="76.3234" cy="23.1302" r="7.98187" transform="rotate(-60 76.3234 23.1302)" fill="white"/>
<circle cx="117.797" cy="47.0755" r="7.98187" transform="rotate(-60 117.797 47.0755)" fill="white"/>
<circle cx="159.273" cy="71.0228" r="7.98187" transform="rotate(-60 159.273 71.0228)" fill="white"/>
<circle cx="200.749" cy="94.9681" r="7.98187" transform="rotate(-60 200.749 94.9681)" fill="white"/>
<circle cx="242.223" cy="118.913" r="7.98187" transform="rotate(-60 242.223 118.913)" fill="white"/>
<circle cx="283.698" cy="142.859" r="7.98187" transform="rotate(-60 283.698 142.859)" fill="white"/>
<circle cx="325.174" cy="166.804" r="7.98187" transform="rotate(-60 325.174 166.804)" fill="white"/>
<circle cx="141.746" cy="5.60284" r="7.98187" transform="rotate(-60 141.746 5.60284)" fill="white"/>
<circle cx="183.22" cy="29.5482" r="7.98187" transform="rotate(-60 183.22 29.5482)" fill="white"/>
<circle cx="224.696" cy="53.4925" r="7.98187" transform="rotate(-60 224.696 53.4925)" fill="white"/>
<circle cx="266.172" cy="77.4388" r="7.98187" transform="rotate(-60 266.172 77.4388)" fill="white"/>
<circle cx="307.646" cy="101.384" r="7.98187" transform="rotate(-60 307.646 101.384)" fill="white"/>
<circle cx="349.121" cy="125.329" r="7.98187" transform="rotate(-60 349.121 125.329)" fill="white"/>
<circle cx="248.642" cy="12.0198" r="7.98187" transform="rotate(-60 248.642 12.0198)" fill="white"/>
<circle cx="290.115" cy="35.9651" r="7.98187" transform="rotate(-60 290.115 35.9651)" fill="white"/>
<circle cx="331.591" cy="59.9105" r="7.98187" transform="rotate(-60 331.591 59.9105)" fill="white"/>
<circle cx="373.067" cy="83.8568" r="7.98187" transform="rotate(-60 373.067 83.8568)" fill="white"/>
</svg>
