<svg width="123" height="195" viewBox="0 0 123 195" fill="none" xmlns="http://www.w3.org/2000/svg">
<path d="M35.0827 170.042C25.0483 158.636 26.16 141.256 37.5658 131.221C48.9716 121.187 66.3524 122.299 76.3868 133.704C86.4212 145.11 85.3094 162.491 73.9036 172.525C62.4978 182.56 45.1171 181.448 35.0827 170.042Z" fill="#2B305E"/>
<path d="M110.12 159.168C100.085 147.762 101.197 130.382 112.603 120.347C124.009 110.313 141.389 111.425 151.424 122.83C161.458 134.236 160.347 151.617 148.941 161.651C137.535 171.686 120.154 170.574 110.12 159.168Z" fill="#2B305E"/>
<path d="M42.3151 82.0979C32.2807 70.6921 33.3925 53.3113 44.7983 43.2769C56.2041 33.2425 73.5848 34.3543 83.6192 45.7601C93.6536 57.1659 92.5419 74.5466 81.136 84.581C69.7302 94.6154 52.3495 93.5037 42.3151 82.0979Z" fill="#C9D6EA"/>
<path d="M89.7301 32.6827C85.1752 27.5053 85.6799 19.6157 90.8573 15.0608C96.0347 10.5059 103.924 11.0105 108.479 16.188C113.034 21.3654 112.529 29.255 107.352 33.8099C102.175 38.3648 94.285 37.8601 89.7301 32.6827Z" fill="#C9D6EA"/>
</svg>
