<svg width="81" height="177" viewBox="0 0 81 177" fill="none" xmlns="http://www.w3.org/2000/svg">
<circle cx="4.25195" cy="4.4873" r="4" fill="white"/>
<circle cx="4.25195" cy="28.4873" r="4" fill="white"/>
<circle cx="4.25195" cy="52.4873" r="4" fill="white"/>
<circle cx="4.25195" cy="76.4873" r="4" fill="white"/>
<circle cx="4.25195" cy="100.487" r="4" fill="white"/>
<circle cx="4.25195" cy="124.487" r="4" fill="white"/>
<circle cx="4.25195" cy="148.487" r="4" fill="white"/>
<circle cx="4.25195" cy="172.487" r="4" fill="white"/>
<circle cx="28.252" cy="4.4873" r="4" fill="white"/>
<circle cx="28.252" cy="28.4873" r="4" fill="white"/>
<circle cx="28.252" cy="52.4873" r="4" fill="white"/>
<circle cx="28.252" cy="76.4873" r="4" fill="white"/>
<circle cx="28.252" cy="100.487" r="4" fill="white"/>
<circle cx="28.252" cy="124.487" r="4" fill="white"/>
<circle cx="28.252" cy="148.487" r="4" fill="white"/>
<circle cx="28.252" cy="172.487" r="4" fill="white"/>
<circle cx="52.252" cy="4.4873" r="4" fill="white"/>
<circle cx="52.252" cy="28.4873" r="4" fill="white"/>
<circle cx="52.252" cy="52.4873" r="4" fill="white"/>
<circle cx="52.252" cy="76.4873" r="4" fill="white"/>
<circle cx="52.252" cy="100.487" r="4" fill="white"/>
<circle cx="52.252" cy="124.487" r="4" fill="white"/>
<circle cx="52.252" cy="148.487" r="4" fill="white"/>
<circle cx="52.252" cy="172.487" r="4" fill="white"/>
<circle cx="76.252" cy="4.4873" r="4" fill="white"/>
<circle cx="76.252" cy="28.4873" r="4" fill="white"/>
<circle cx="76.252" cy="52.4873" r="4" fill="white"/>
<circle cx="76.252" cy="76.4873" r="4" fill="white"/>
<circle cx="76.252" cy="100.487" r="4" fill="white"/>
<circle cx="76.252" cy="124.487" r="4" fill="white"/>
<circle cx="76.252" cy="148.487" r="4" fill="white"/>
<circle cx="76.252" cy="172.487" r="4" fill="white"/>
</svg>
