<svg width="81" height="177" viewBox="0 0 81 177" fill="none" xmlns="http://www.w3.org/2000/svg">
<circle cx="4.33398" cy="4.8623" r="4" fill="white"/>
<circle cx="4.33398" cy="28.8623" r="4" fill="white"/>
<circle cx="4.33398" cy="52.8623" r="4" fill="white"/>
<circle cx="4.33398" cy="76.8623" r="4" fill="white"/>
<circle cx="4.33398" cy="100.862" r="4" fill="white"/>
<circle cx="4.33398" cy="124.862" r="4" fill="white"/>
<circle cx="4.33398" cy="148.862" r="4" fill="white"/>
<circle cx="4.33398" cy="172.862" r="4" fill="white"/>
<circle cx="28.334" cy="4.8623" r="4" fill="white"/>
<circle cx="28.334" cy="28.8623" r="4" fill="white"/>
<circle cx="28.334" cy="52.8623" r="4" fill="white"/>
<circle cx="28.334" cy="76.8623" r="4" fill="white"/>
<circle cx="28.334" cy="100.862" r="4" fill="white"/>
<circle cx="28.334" cy="124.862" r="4" fill="white"/>
<circle cx="28.334" cy="148.862" r="4" fill="white"/>
<circle cx="28.334" cy="172.862" r="4" fill="white"/>
<circle cx="52.334" cy="4.8623" r="4" fill="white"/>
<circle cx="52.334" cy="28.8623" r="4" fill="white"/>
<circle cx="52.334" cy="52.8623" r="4" fill="white"/>
<circle cx="52.334" cy="76.8623" r="4" fill="white"/>
<circle cx="52.334" cy="100.862" r="4" fill="white"/>
<circle cx="52.334" cy="124.862" r="4" fill="white"/>
<circle cx="52.334" cy="148.862" r="4" fill="white"/>
<circle cx="52.334" cy="172.862" r="4" fill="white"/>
<circle cx="76.334" cy="4.8623" r="4" fill="white"/>
<circle cx="76.334" cy="28.8623" r="4" fill="white"/>
<circle cx="76.334" cy="52.8623" r="4" fill="white"/>
<circle cx="76.334" cy="76.8623" r="4" fill="white"/>
<circle cx="76.334" cy="100.862" r="4" fill="white"/>
<circle cx="76.334" cy="124.862" r="4" fill="white"/>
<circle cx="76.334" cy="148.862" r="4" fill="white"/>
<circle cx="76.334" cy="172.862" r="4" fill="white"/>
</svg>
