<svg width="382" height="426" viewBox="0 0 382 426" fill="none" xmlns="http://www.w3.org/2000/svg">
<path opacity="0.5" d="M191.236 393.138C296.517 393.138 381.864 307.324 381.864 201.467C381.864 95.61 296.517 9.7959 191.236 9.7959C85.9553 9.7959 0.608398 95.61 0.608398 201.467C0.608398 307.324 85.9553 393.138 191.236 393.138Z" fill="url(#paint0_radial_3892_171)" fill-opacity="0.9"/>
<path d="M150.04 328.724C149.857 328.724 149.67 328.7 149.484 328.654L148.899 328.489C75.7563 308.204 24.6523 240.791 24.6523 164.557C24.6523 149.312 26.7174 134.054 30.7871 119.204C38.6832 90.4286 53.9656 64.2029 74.9861 43.3659C75.8456 42.5137 77.2334 42.5182 78.0832 43.3868C78.9338 44.254 78.9241 45.6487 78.0602 46.5039C57.5866 66.7985 42.7008 92.3426 35.0101 120.379C31.043 134.843 29.0346 149.707 29.0346 164.557C29.0346 238.814 78.8117 304.484 150.091 324.252L150.595 324.389C151.768 324.699 152.464 325.906 152.16 327.08C151.899 328.071 151.011 328.724 150.04 328.724ZM311.538 285.993C310.974 285.993 310.408 285.776 309.982 285.34C309.127 284.476 309.137 283.08 309.997 282.225C330.372 261.954 345.192 236.479 352.855 208.541C356.822 194.077 358.83 179.213 358.83 164.363C358.83 90.1061 309.052 24.4383 237.774 4.66816L238.086 2.47142L238.839 0.395108C312.108 20.7151 363.212 88.1308 363.212 164.363C363.212 179.608 361.147 194.866 357.078 209.715C349.214 238.39 333.997 264.547 313.08 285.354C312.65 285.782 312.094 285.993 311.538 285.993Z" fill="#2B305E"/>
<path d="M228.106 303.989C227.12 303.989 226.228 303.323 225.98 302.317C225.687 301.138 226.401 299.944 227.578 299.649C251.033 293.777 272.679 281.694 290.176 264.706C317.476 238.211 332.507 202.602 332.507 164.442C332.507 128.156 318.7 93.7924 293.634 67.6849L294.924 65.8623L296.742 64.5798C322.649 91.559 336.89 127.006 336.89 164.442C336.89 203.809 321.382 240.541 293.223 267.873C275.17 285.401 252.837 297.864 228.635 303.923C228.456 303.97 228.279 303.989 228.106 303.989ZM92.7999 262.911L91.1412 264.353C65.2152 237.355 50.9746 201.91 50.9746 164.474C50.9746 125.107 66.4818 88.3746 94.6409 61.043C112.638 43.5722 134.906 31.1234 159.033 25.0419C160.224 24.7434 161.402 25.4669 161.691 26.6438C161.986 27.823 161.271 29.0209 160.098 29.3172C136.714 35.2101 115.133 47.2788 97.6866 64.2147C70.387 90.7075 55.3561 126.314 55.3561 164.474C55.3561 200.76 69.1629 235.124 94.2286 261.23L92.7999 262.911Z" fill="#2B305E"/>
<path d="M193.931 280.086C257.443 280.086 308.93 228.317 308.93 164.458C308.93 100.598 257.443 48.8291 193.931 48.8291C130.418 48.8291 78.9316 100.598 78.9316 164.458C78.9316 228.317 130.418 280.086 193.931 280.086Z" fill="#2B305E"/>
<path d="M193.933 283.76C128.508 283.76 75.2783 230.239 75.2783 164.457C75.2783 98.6745 128.508 45.1592 193.933 45.1592C259.358 45.1592 312.583 98.6738 312.583 164.457C312.583 230.24 259.357 283.76 193.933 283.76ZM193.933 52.5014C132.536 52.5014 82.5858 102.723 82.5858 164.456C82.5858 226.189 132.536 276.413 193.933 276.413C255.33 276.413 305.275 226.189 305.275 164.456C305.275 102.723 255.33 52.5014 193.933 52.5014Z" fill="white"/>
<path d="M111.348 393.203C110.698 393.739 110.376 394.443 110.376 395.327C110.376 396.21 110.769 396.91 111.563 397.427C112.352 397.948 114.175 398.564 117.034 399.268C119.894 399.978 122.113 401.039 123.692 402.453C125.271 403.872 126.065 405.934 126.065 408.65C126.065 411.37 125.052 413.568 123.024 415.26C121.001 416.951 118.333 417.796 115.03 417.796C110.259 417.796 105.966 416.021 102.144 412.465L106.152 407.528C109.4 410.384 112.404 411.817 115.16 411.817C116.394 411.817 117.366 411.549 118.071 411.013C118.772 410.477 119.127 409.758 119.127 408.847C119.127 407.936 118.754 407.217 118.006 406.681C117.259 406.145 115.778 405.605 113.568 405.056C110.059 404.215 107.494 403.125 105.872 401.782C104.246 400.438 103.438 398.333 103.438 395.458C103.438 392.583 104.467 390.366 106.518 388.806C108.574 387.246 111.138 386.462 114.213 386.462C116.222 386.462 118.236 386.809 120.244 387.505C122.258 388.195 124.01 389.182 125.505 390.451L122.098 395.393C119.482 393.396 116.782 392.4 113.997 392.4C112.876 392.4 111.992 392.668 111.348 393.203Z" fill="#2B305E"/>
<path d="M140.847 398.811V409.259C140.847 410.151 141.076 410.852 141.539 411.358C141.996 411.866 142.543 412.115 143.174 412.115C144.384 412.115 145.403 411.57 146.235 410.47L148.65 415.018C146.637 416.868 144.52 417.794 142.292 417.794C140.068 417.794 138.185 417.056 136.648 415.581C135.111 414.111 134.34 412.1 134.34 409.558V398.809H131.626V394.131H134.34V387.154H140.848V394.131H146.45V398.809H140.847V398.811Z" fill="#2B305E"/>
<path d="M174.769 414.065C172.152 416.55 169.083 417.795 165.564 417.795C162.046 417.795 159.136 416.706 156.837 414.521C154.538 412.341 153.389 409.414 153.389 405.745C153.389 402.076 154.561 399.159 156.902 396.993C159.243 394.828 162.009 393.742 165.2 393.742C168.386 393.742 171.096 394.71 173.325 396.645C175.548 398.581 176.661 401.24 176.661 404.622V408.089H159.767C159.968 409.357 160.631 410.4 161.752 411.209C162.873 412.017 164.136 412.421 165.546 412.421C167.812 412.421 169.682 411.655 171.148 410.124L174.769 414.065ZM168.559 400.245C167.672 399.493 166.583 399.117 165.308 399.117C164.027 399.117 162.855 399.507 161.794 400.288C160.729 401.067 160.112 402.124 159.939 403.449H170.11C169.965 402.062 169.452 400.996 168.559 400.245Z" fill="#2B305E"/>
<path d="M197.391 393.744C200.091 393.744 202.498 394.881 204.61 397.146C206.721 399.414 207.777 402.266 207.777 405.705C207.777 409.144 206.721 412.019 204.61 414.33C202.498 416.641 200.026 417.797 197.199 417.797C194.368 417.797 192.092 416.655 190.369 414.372V425.858H183.902V394.135H190.369V396.737C192.349 394.74 194.69 393.744 197.391 393.744ZM190.28 405.813C190.28 407.706 190.803 409.252 191.854 410.45C192.901 411.647 194.172 412.249 195.666 412.249C197.161 412.249 198.47 411.647 199.591 410.45C200.713 409.252 201.268 407.715 201.268 405.836C201.268 403.957 200.727 402.383 199.633 401.11C198.54 399.842 197.231 399.203 195.708 399.203C194.185 399.203 192.901 399.833 191.853 401.092C190.803 402.346 190.28 403.924 190.28 405.813Z" fill="#2B305E"/>
<path d="M240.958 417.796C236.795 417.796 233.679 416.372 231.609 413.526C229.54 410.684 228.507 406.884 228.507 402.129C228.507 397.379 229.54 393.579 231.609 390.732C233.679 387.886 236.795 386.462 240.958 386.462C245.126 386.462 248.242 387.885 250.312 390.732C252.381 393.579 253.414 397.38 253.414 402.129C253.414 406.883 252.381 410.683 250.312 413.526C248.242 416.372 245.126 417.796 240.958 417.796ZM236.52 394.828C235.571 396.675 235.099 399.117 235.099 402.153C235.099 405.183 235.571 407.626 236.52 409.476C237.468 411.323 238.949 412.248 240.958 412.248C242.971 412.248 244.453 411.323 245.401 409.476C246.349 407.626 246.822 405.183 246.822 402.153C246.822 399.118 246.349 396.675 245.401 394.828C244.453 392.977 242.971 392.053 240.958 392.053C238.949 392.053 237.468 392.977 236.52 394.828Z" fill="#2B305E"/>
<path d="M273.565 398.968C274.327 397.883 274.71 396.835 274.71 395.825C274.71 394.815 274.378 393.969 273.719 393.288C273.056 392.612 272.209 392.274 271.172 392.274C269.28 392.274 267.481 393.631 265.785 396.346L260.398 393.138C261.809 390.944 263.351 389.281 265.033 388.154C266.715 387.026 268.855 386.463 271.453 386.463C274.055 386.463 276.34 387.294 278.307 388.957C280.274 390.621 281.26 392.88 281.26 395.742C281.26 397.301 280.862 398.795 280.074 400.223C279.283 401.656 277.825 403.483 275.7 405.706L270.271 411.385H282.167V417.45H260.918V412.423L269.752 403.323C271.533 401.5 272.804 400.048 273.565 398.968Z" fill="#2B305E"/>
<path d="M193.934 364.966C192.724 364.966 191.742 363.98 191.742 362.763V254.067C191.742 252.85 192.724 251.863 193.934 251.863C195.144 251.863 196.125 252.85 196.125 254.067V362.764C196.124 363.98 195.144 364.966 193.934 364.966Z" fill="#2B305E"/>
<path d="M184.046 362.265C184.046 367.755 188.473 372.206 193.933 372.206C199.392 372.206 203.818 367.755 203.818 362.265C203.818 356.776 199.392 352.324 193.933 352.324C188.473 352.325 184.046 356.776 184.046 362.265Z" fill="#2B305E"/>
<path d="M141.808 127.368V198.086H246.212V127.368H141.808ZM193.932 164.459L154.32 133.761H233.673L193.932 164.459ZM180.202 161.892L148.171 188.152V137.065L180.202 161.892ZM185.372 165.902L193.922 172.527L202.935 165.564L234.227 191.694H153.923L185.372 165.902ZM208.105 161.571L239.849 137.052V188.078L208.105 161.571Z" fill="white"/>
<defs>
<radialGradient id="paint0_radial_3892_171" cx="0" cy="0" r="1" gradientUnits="userSpaceOnUse" gradientTransform="translate(191.236 201.467) scale(190.628 191.671)">
<stop offset="0.1089" stop-color="#2B305E" stop-opacity="0.35"/>
<stop offset="0.2554" stop-color="#2B305E" stop-opacity="0.3"/>
<stop offset="0.4018" stop-color="#2B305E" stop-opacity="0.25"/>
<stop offset="0.5422" stop-color="#2B305E" stop-opacity="0.2"/>
<stop offset="0.6754" stop-color="#2B305E" stop-opacity="0.15"/>
<stop offset="0.7996" stop-color="#2B305E" stop-opacity="0.1"/>
<stop offset="0.9113" stop-color="#2B305E" stop-opacity="0.01"/>
</radialGradient>
</defs>
</svg>
