<svg width="382" height="426" viewBox="0 0 382 426" fill="none" xmlns="http://www.w3.org/2000/svg">
<path opacity="0.5" d="M190.749 393.138C296.029 393.138 381.376 307.324 381.376 201.467C381.376 95.61 296.029 9.7959 190.749 9.7959C85.468 9.7959 0.121094 95.61 0.121094 201.467C0.121094 307.324 85.468 393.138 190.749 393.138Z" fill="url(#paint0_radial_3892_174)"/>
<path d="M145.446 328.723C145.263 328.723 145.077 328.699 144.89 328.653L144.306 328.488C71.1626 308.203 20.0586 240.79 20.0586 164.556C20.0586 149.311 22.1236 134.053 26.1933 119.203C34.0894 90.4276 49.3718 64.2019 70.3924 43.3649C71.2474 42.5127 72.6352 42.5172 73.4895 43.3859C74.34 44.253 74.3303 45.6477 73.4664 46.5029C52.9928 66.7975 38.1078 92.3416 30.4171 120.378C26.4501 134.842 24.4416 149.706 24.4416 164.556C24.4416 238.813 74.2188 304.483 145.498 324.251L146.002 324.388C147.175 324.698 147.871 325.905 147.567 327.079C147.305 328.07 146.418 328.723 145.446 328.723ZM306.945 285.992C306.379 285.992 305.814 285.775 305.389 285.339C304.534 284.475 304.543 283.079 305.403 282.224C325.778 261.953 340.599 236.478 348.261 208.54C352.228 194.076 354.236 179.212 354.236 164.363C354.236 90.1051 304.458 24.4373 233.18 4.66719L233.493 2.47045L234.245 0.394132C307.514 20.7142 358.619 88.1299 358.619 164.362C358.619 179.607 356.554 194.865 352.485 209.714C344.621 238.389 329.404 264.546 308.487 285.353C308.057 285.781 307.5 285.992 306.945 285.992Z" fill="#2B305E"/>
<path d="M223.513 303.99C222.527 303.99 221.634 303.324 221.387 302.318C221.092 301.139 221.807 299.945 222.984 299.65C246.438 293.778 268.085 281.695 285.582 264.707C312.882 238.212 327.912 202.603 327.912 164.443C327.912 128.157 314.106 93.7934 289.04 67.6859L290.329 65.8633L292.146 64.5808C318.054 91.56 332.294 127.007 332.294 164.443C332.294 203.81 316.787 240.542 288.628 267.874C270.575 285.402 248.242 297.865 224.04 303.924C223.862 303.971 223.685 303.99 223.513 303.99ZM88.2061 262.912L86.5475 264.354C60.6215 237.356 46.3809 201.911 46.3809 164.475C46.3809 125.108 61.888 88.3756 90.0471 61.044C108.044 43.5732 130.312 31.1244 154.439 25.0429C155.616 24.7443 156.803 25.4679 157.097 26.6448C157.392 27.824 156.677 29.0219 155.504 29.3182C132.12 35.2111 110.539 47.2798 93.0928 64.2157C65.7933 90.7085 50.7631 126.315 50.7631 164.475C50.7631 200.76 64.5699 235.125 89.6356 261.23L88.2061 262.912Z" fill="#2B305E"/>
<path d="M188.545 280.085C252.057 280.085 303.544 228.316 303.544 164.457C303.544 100.597 252.057 48.8281 188.545 48.8281C125.033 48.8281 73.5459 100.597 73.5459 164.457C73.5459 228.316 125.033 280.085 188.545 280.085Z" fill="#2B305E"/>
<path d="M189.336 283.76C123.912 283.76 70.6855 230.238 70.6855 164.456C70.6855 98.6735 123.911 45.1582 189.336 45.1582C254.761 45.1582 307.991 98.6728 307.991 164.456C307.991 230.239 254.761 283.76 189.336 283.76ZM189.336 52.5004C127.939 52.5004 77.993 102.722 77.993 164.455C77.993 226.188 127.939 276.412 189.336 276.412C250.733 276.412 300.683 226.188 300.683 164.455C300.683 102.722 250.734 52.5004 189.336 52.5004Z" fill="white"/>
<path d="M107.119 393.203C106.47 393.739 106.147 394.443 106.147 395.327C106.147 396.21 106.539 396.91 107.333 397.427C108.124 397.948 109.945 398.564 112.805 399.268C115.665 399.978 117.884 401.039 119.463 402.453C121.042 403.872 121.836 405.934 121.836 408.65C121.836 411.37 120.823 413.568 118.795 415.26C116.771 416.951 114.104 417.796 110.8 417.796C106.03 417.796 101.736 416.021 97.9141 412.465L101.923 407.528C105.17 410.384 108.174 411.817 110.931 411.817C112.164 411.817 113.136 411.549 113.842 411.013C114.543 410.477 114.898 409.758 114.898 408.847C114.898 407.936 114.524 407.217 113.776 406.681C113.029 406.145 111.548 405.605 109.338 405.056C105.83 404.215 103.264 403.125 101.643 401.782C100.017 400.438 99.2089 398.333 99.2089 395.458C99.2089 392.583 100.236 390.366 102.288 388.806C104.343 387.246 106.909 386.462 109.983 386.462C111.992 386.462 114.006 386.809 116.015 387.505C118.028 388.195 119.781 389.182 121.276 390.451L117.87 395.393C115.253 393.396 112.553 392.4 109.768 392.4C108.648 392.4 107.764 392.668 107.119 393.203Z" fill="#2B305E"/>
<path d="M136.619 398.813V409.261C136.619 410.153 136.848 410.854 137.311 411.36C137.768 411.868 138.315 412.117 138.946 412.117C140.156 412.117 141.175 411.572 142.006 410.472L144.422 415.02C142.408 416.87 140.291 417.796 138.063 417.796C135.84 417.796 133.956 417.058 132.419 415.583C130.882 414.113 130.111 412.102 130.111 409.56V398.811H127.396V394.133H130.111V387.156H136.619V394.133H142.221V398.811H136.619V398.813Z" fill="#2B305E"/>
<path d="M170.54 414.065C167.923 416.55 164.854 417.795 161.336 417.795C157.817 417.795 154.906 416.706 152.608 414.521C150.309 412.341 149.159 409.414 149.159 405.745C149.159 402.076 150.332 399.159 152.673 396.993C155.014 394.828 157.78 393.742 160.971 393.742C164.157 393.742 166.868 394.71 169.096 396.645C171.32 398.581 172.431 401.24 172.431 404.622V408.089H155.537C155.737 409.357 156.401 410.4 157.523 411.209C158.644 412.017 159.905 412.421 161.316 412.421C163.582 412.421 165.451 411.655 166.918 410.124L170.54 414.065ZM164.331 400.245C163.444 399.493 162.354 399.117 161.079 399.117C159.799 399.117 158.626 399.507 157.566 400.288C156.5 401.067 155.884 402.124 155.711 403.449H165.882C165.737 402.062 165.224 400.996 164.331 400.245Z" fill="#2B305E"/>
<path d="M193.162 393.744C195.863 393.744 198.269 394.881 200.381 397.146C202.493 399.414 203.549 402.266 203.549 405.705C203.549 409.144 202.493 412.019 200.381 414.33C198.269 416.641 195.798 417.797 192.971 417.797C190.139 417.797 187.864 416.655 186.14 414.372V425.858H179.674V394.135H186.14V396.737C188.121 394.74 190.462 393.744 193.162 393.744ZM186.051 405.813C186.051 407.706 186.574 409.252 187.626 410.45C188.672 411.647 189.943 412.249 191.438 412.249C192.933 412.249 194.242 411.647 195.363 410.45C196.484 409.252 197.04 407.715 197.04 405.836C197.04 403.957 196.498 402.383 195.405 401.11C194.311 399.842 193.003 399.203 191.48 399.203C189.957 399.203 188.672 399.833 187.626 401.092C186.574 402.346 186.051 403.924 186.051 405.813Z" fill="#2B305E"/>
<path d="M236.73 417.796C232.568 417.796 229.452 416.372 227.382 413.526C225.312 410.684 224.279 406.884 224.279 402.129C224.279 397.379 225.311 393.579 227.382 390.732C229.452 387.886 232.568 386.462 236.73 386.462C240.898 386.462 244.015 387.885 246.084 390.732C248.154 393.579 249.186 397.38 249.186 402.129C249.186 406.883 248.154 410.683 246.084 413.526C244.015 416.372 240.898 417.796 236.73 417.796ZM232.292 394.828C231.344 396.675 230.872 399.117 230.872 402.153C230.872 405.183 231.344 407.626 232.292 409.476C233.241 411.323 234.722 412.248 236.73 412.248C238.744 412.248 240.226 411.323 241.174 409.476C242.122 407.626 242.594 405.183 242.594 402.153C242.594 399.118 242.122 396.675 241.174 394.828C240.226 392.977 238.744 392.053 236.73 392.053C234.722 392.053 233.241 392.977 232.292 394.828Z" fill="#2B305E"/>
<path d="M267.852 404.361V399.076H274.319V404.361H277.725V410.214H274.319V417.449H267.852V410.214H255.742V405.056L266.474 387.157H273.8L263.587 404.361H267.852Z" fill="#2B305E"/>
<path d="M189.341 364.966C188.13 364.966 187.149 363.98 187.149 362.763V254.067C187.149 252.85 188.13 251.863 189.341 251.863C190.551 251.863 191.533 252.85 191.533 254.067V362.764C191.532 363.98 190.551 364.966 189.341 364.966Z" fill="#2B305E"/>
<path d="M179.453 362.266C179.453 367.756 183.88 372.207 189.339 372.207C194.797 372.207 199.224 367.756 199.224 362.266C199.224 356.777 194.797 352.325 189.339 352.325C183.88 352.326 179.453 356.777 179.453 362.266Z" fill="#2B305E"/>
<path d="M163.343 193L179.601 176.655L186.444 183.531L218.021 151.789L223.283 157.079L225.338 144.429L225.932 143.831L225.501 143.402L227.038 133.945L204.032 137.724L209.961 143.682L186.444 167.324L179.601 160.448L162.251 177.894V125.666H152.277V193V203.029H162.251H229.219V193H163.343Z" fill="white"/>
<defs>
<radialGradient id="paint0_radial_3892_174" cx="0" cy="0" r="1" gradientUnits="userSpaceOnUse" gradientTransform="translate(190.749 201.467) scale(190.628 191.671)">
<stop offset="0.1089" stop-color="#2B305E" stop-opacity="0.35"/>
<stop offset="0.2554" stop-color="#2B305E" stop-opacity="0.3"/>
<stop offset="0.4018" stop-color="#2B305E" stop-opacity="0.25"/>
<stop offset="0.5422" stop-color="#2B305E" stop-opacity="0.2"/>
<stop offset="0.6754" stop-color="#2B305E" stop-opacity="0.15"/>
<stop offset="0.7996" stop-color="#2B305E" stop-opacity="0.1"/>
<stop offset="0.9113" stop-color="#2B305E" stop-opacity="0.01"/>
</radialGradient>
</defs>
</svg>
