<svg width="383" height="481" viewBox="0 0 383 481" fill="none" xmlns="http://www.w3.org/2000/svg">
<path opacity="0.5" d="M191.432 480.756C296.713 480.756 382.06 394.942 382.06 289.085C382.06 183.228 296.713 97.4141 191.432 97.4141C86.1516 97.4141 0.804688 183.228 0.804688 289.085C0.804688 394.942 86.1516 480.756 191.432 480.756Z" fill="url(#paint0_radial_3883_171)"/>
<path d="M147.712 419.719C147.549 419.719 147.38 419.696 147.208 419.654C147.199 419.649 146.955 419.583 146.951 419.583C73.467 399.204 22.3623 331.791 22.3623 255.557C22.3623 240.307 24.4273 225.05 28.5015 210.204C36.3924 181.433 51.68 155.21 72.7005 134.371C73.5556 133.518 74.9426 133.528 75.7977 134.392C76.6482 135.259 76.6385 136.654 75.7746 137.509C55.301 157.806 40.4152 183.352 32.7245 211.379C28.7575 225.838 26.7438 240.702 26.7438 255.557C26.7438 329.814 76.5262 395.484 147.81 415.252C148.968 415.571 149.922 416.849 149.608 418.024C149.343 419.015 148.636 419.719 147.712 419.719ZM309.257 376.984C308.692 376.984 308.127 376.767 307.701 376.33C306.846 375.466 306.856 374.071 307.715 373.216C328.086 352.955 342.907 327.479 350.569 299.541C354.536 285.086 356.55 270.222 356.55 255.363C356.55 181.108 306.767 115.441 235.489 95.6682C234.325 95.3442 233.503 94.094 233.821 92.9223C234.138 91.7521 235.208 90.9986 236.377 91.3458L235.797 93.4692L236.628 91.4139C309.828 111.717 360.932 179.133 360.932 255.363C360.932 270.617 358.867 285.875 354.793 300.715C346.925 329.395 331.713 355.547 310.8 376.344C310.369 376.772 309.813 376.984 309.257 376.984Z" fill="#DBB968"/>
<path d="M225.816 394.984C224.83 394.984 223.938 394.318 223.69 393.312C223.396 392.133 224.111 390.935 225.288 390.644C248.743 384.776 270.389 372.694 287.896 355.707C315.19 329.206 330.221 293.603 330.221 255.442C330.221 219.157 316.415 184.793 291.348 158.685C290.507 157.811 290.391 156.277 291.255 155.43C292.12 154.589 293.362 154.455 294.213 155.329L294.494 155.617C320.364 182.559 334.605 218.006 334.605 255.442C334.605 294.805 319.097 331.542 290.943 358.873C272.88 376.401 250.547 388.868 226.345 394.919C226.167 394.965 225.989 394.984 225.816 394.984ZM90.4114 356.073C89.8883 356.073 89.3741 355.876 88.9633 355.467C88.9403 355.439 88.7766 355.27 88.7527 355.241C62.9347 328.356 48.6934 292.911 48.6934 255.475C48.6934 216.108 64.2005 179.378 92.3551 152.044C110.361 134.573 132.629 122.124 156.752 116.043C157.925 115.744 159.116 116.468 159.41 117.645C159.704 118.824 158.99 120.022 157.817 120.318C134.438 126.211 112.853 138.28 95.4016 155.216C68.1065 181.708 53.0764 217.315 53.0764 255.475C53.0764 291.76 66.8832 326.124 91.9488 352.23C92.7853 353.099 92.8366 354.56 91.9816 355.406C91.5381 355.847 90.9673 356.073 90.4114 356.073Z" fill="#DBB968"/>
<path d="M191.649 371.087C255.162 371.087 306.649 319.319 306.649 255.458C306.649 191.598 255.162 139.829 191.649 139.829C128.137 139.829 76.6494 191.598 76.6494 255.458C76.6494 319.319 128.137 371.087 191.649 371.087Z" fill="#DBB968"/>
<path d="M191.65 374.76C126.226 374.76 72.9951 321.239 72.9951 255.457C72.9951 189.675 126.226 136.159 191.65 136.159C257.074 136.159 310.3 189.674 310.3 255.457C310.3 321.24 257.074 374.76 191.65 374.76ZM191.65 143.501C130.253 143.501 80.3026 193.723 80.3026 255.456C80.3026 317.189 130.253 367.413 191.65 367.413C253.047 367.413 302.992 317.189 302.992 255.456C302.992 193.723 253.047 143.501 191.65 143.501Z" fill="white"/>
<path d="M113.419 7.63473C112.77 8.17046 112.447 8.87528 112.447 9.75818C112.447 10.6411 112.839 11.3414 113.633 11.8577C114.423 12.3792 116.245 12.995 119.105 13.699C121.965 14.4083 124.184 15.47 125.763 16.8842C127.342 18.3028 128.137 20.3649 128.137 23.0801C128.137 25.8007 127.123 27.9989 125.095 29.6906C123.072 31.3816 120.404 32.2271 117.1 32.2271C112.33 32.2271 108.037 30.4516 104.215 26.8953L108.224 21.9578C111.471 24.8145 114.475 26.2466 117.231 26.2466C118.465 26.2466 119.436 25.9795 120.142 25.443C120.843 24.908 121.198 24.189 121.198 23.2777C121.198 22.3664 120.825 21.6473 120.077 21.1116C119.33 20.5759 117.848 20.0357 115.639 19.4865C112.13 18.6455 109.565 17.5553 107.944 16.2123C106.318 14.8685 105.51 12.7645 105.51 9.88911C105.51 7.01372 106.537 4.79676 108.589 3.23673C110.644 1.67745 113.21 0.892578 116.284 0.892578C118.293 0.892578 120.307 1.24051 122.315 1.9356C124.329 2.6262 126.081 3.61308 127.576 4.88131L124.171 9.82328C121.554 7.82629 118.854 6.83042 116.069 6.83042C114.948 6.83117 114.064 7.09976 113.419 7.63473Z" fill="#DBB968"/>
<path d="M142.919 13.2443V23.6924C142.919 24.5851 143.148 25.2846 143.611 25.7919C144.069 26.2992 144.616 26.5484 145.247 26.5484C146.457 26.5484 147.476 26.0037 148.307 24.9038L150.722 29.4514C148.709 31.3018 146.592 32.2273 144.364 32.2273C142.139 32.2273 140.257 31.4896 138.719 30.0141C137.182 28.5438 136.411 26.5334 136.411 23.9917V13.2429H133.696V8.56425H136.411V1.58789H142.919V8.56425H148.521V13.2429H142.919V13.2443Z" fill="#DBB968"/>
<path d="M176.839 28.4971C174.223 30.9819 171.153 32.2269 167.635 32.2269C164.116 32.2269 161.206 31.1368 158.907 28.9527C156.609 26.7732 155.459 23.8462 155.459 20.1777C155.459 16.5092 156.632 13.5919 158.973 11.4258C161.314 9.26047 164.08 8.1748 167.271 8.1748C170.457 8.1748 173.167 9.143 175.395 11.0779C177.62 13.0135 178.731 15.6727 178.731 19.0546V22.5218H161.836C162.037 23.79 162.701 24.8331 163.822 25.6411C164.943 26.4485 166.205 26.8532 167.616 26.8532C169.883 26.8532 171.751 26.0878 173.218 24.5562L176.839 28.4971ZM170.629 14.6768C169.741 13.9248 168.653 13.5492 167.377 13.5492C166.097 13.5492 164.924 13.9391 163.864 14.7194C162.798 15.4991 162.182 16.5563 162.009 17.8806H172.18C172.035 16.4949 171.521 15.428 170.629 14.6768Z" fill="#DBB968"/>
<path d="M199.462 8.1748C202.162 8.1748 204.569 9.31134 206.681 11.5762C208.793 13.8455 209.849 16.697 209.849 20.1358C209.849 23.5746 208.793 26.45 206.681 28.7612C204.569 31.0724 202.098 32.2284 199.271 32.2284C196.439 32.2284 194.164 31.0866 192.439 28.8038V40.2897H185.974V8.56613H192.439V11.1684C194.421 9.17068 196.761 8.1748 199.462 8.1748ZM192.352 20.2435C192.352 22.1365 192.875 23.6823 193.926 24.8802C194.973 26.0781 196.244 26.6797 197.739 26.6797C199.233 26.6797 200.542 26.0781 201.664 24.8802C202.785 23.6816 203.34 22.1462 203.34 20.2667C203.34 18.3872 202.799 16.8137 201.705 15.541C200.612 14.2728 199.303 13.6338 197.78 13.6338C196.257 13.6338 194.973 14.263 193.926 15.5215C192.874 16.7763 192.352 18.355 192.352 20.2435Z" fill="#DBB968"/>
<path d="M243.03 32.2273C238.867 32.2273 235.751 30.8042 233.68 27.9572C231.611 25.1155 230.578 21.3146 230.578 16.5604C230.578 11.8108 231.61 8.00983 233.68 5.16362C235.751 2.31666 238.866 0.893555 243.03 0.893555C247.197 0.893555 250.314 2.31666 252.384 5.16362C254.453 8.01058 255.486 11.8115 255.486 16.5604C255.486 21.3146 254.453 25.1148 252.384 27.9572C250.314 30.8034 247.198 32.2273 243.03 32.2273ZM238.592 9.26008C237.644 11.1059 237.171 13.5489 237.171 16.5844C237.171 19.6139 237.644 22.0568 238.592 23.9079C239.54 25.7537 241.021 26.6793 243.031 26.6793C245.044 26.6793 246.526 25.7537 247.474 23.9079C248.423 22.0568 248.894 19.6139 248.894 16.5844C248.894 13.5496 248.423 11.1067 247.474 9.26008C246.526 7.409 245.044 6.48345 243.031 6.48345C241.021 6.48345 239.54 7.409 238.592 9.26008Z" fill="#DBB968"/>
<path d="M261.826 1.58887H274.021V31.8796H267.56V7.35312H261.827L261.826 1.58887Z" fill="#DBB968"/>
<path d="M202.259 306.902H171.625C169.684 306.902 168.089 305.305 168.089 303.349C168.089 301.394 169.684 299.794 171.625 299.794H202.259C204.207 299.794 205.796 301.394 205.796 303.349C205.795 305.304 204.206 306.902 202.259 306.902Z" fill="white"/>
<path d="M196.958 318.687H177.812C175.865 318.687 174.275 317.087 174.275 315.132C174.275 313.18 175.865 311.579 177.812 311.579H196.958C198.905 311.579 200.494 313.18 200.494 315.132C200.494 317.087 198.905 318.687 196.958 318.687Z" fill="white"/>
<path d="M203.072 294.363H170.52C169.047 294.363 167.855 293.164 167.855 291.683C167.855 282.599 164.037 273.861 157.379 267.709C148.415 259.465 143.27 247.731 143.27 235.523C143.27 211.358 162.793 191.699 186.792 191.699C210.794 191.699 230.32 211.358 230.32 235.523C230.32 247.791 225.172 259.529 216.193 267.719C209.556 273.906 205.738 282.649 205.738 291.683C205.738 293.165 204.546 294.363 203.072 294.363ZM173.09 289.003H200.504C201.188 279.448 205.509 270.373 212.591 263.77C220.477 256.572 224.99 246.285 224.99 235.523C224.99 214.313 207.854 197.059 186.793 197.059C165.734 197.059 148.601 214.313 148.601 235.523C148.601 246.231 153.114 256.522 160.982 263.758C168.081 270.321 172.407 279.402 173.09 289.003Z" fill="white"/>
<path d="M174.816 216.47C163.963 222.534 159.991 236.384 166.02 247.352C166.824 248.818 166.324 250.688 164.817 251.547C164.365 251.799 163.86 251.9 163.359 251.9C162.303 251.9 161.248 251.344 160.694 250.333C153.002 236.434 158.028 218.796 171.852 211.114C173.364 210.255 175.219 210.81 176.025 212.276C176.829 213.791 176.328 215.661 174.816 216.47Z" fill="white"/>
<path d="M191.65 168.054C190.44 168.054 189.459 167.067 189.459 165.851V57.1547C189.459 55.9381 190.44 54.9512 191.65 54.9512C192.86 54.9512 193.842 55.9381 193.842 57.1547V165.852C193.841 167.068 192.86 168.054 191.65 168.054Z" fill="#DBB968"/>
<path d="M201.534 57.6517C201.534 52.1628 197.107 47.7109 191.648 47.7109C186.189 47.7109 181.762 52.1621 181.762 57.6517C181.762 63.1414 186.189 67.5925 191.648 67.5925C197.107 67.5925 201.534 63.1414 201.534 57.6517Z" fill="#DBB968"/>
<defs>
<radialGradient id="paint0_radial_3883_171" cx="0" cy="0" r="1" gradientUnits="userSpaceOnUse" gradientTransform="translate(191.432 289.085) scale(190.627 191.671)">
<stop offset="0.1089" stop-color="#DBB968" stop-opacity="0.8"/>
<stop offset="0.1149" stop-color="#DBB968" stop-opacity="0.7"/>
<stop offset="0.2623" stop-color="#DBB968" stop-opacity="0.6"/>
<stop offset="0.4074" stop-color="#DBB968" stop-opacity="0.5"/>
<stop offset="0.5465" stop-color="#DBB968" stop-opacity="0.4"/>
<stop offset="0.6785" stop-color="#DBB968" stop-opacity="0.3"/>
<stop offset="0.8015" stop-color="#DBB968" stop-opacity="0.2"/>
<stop offset="0.9122" stop-color="#DBB968" stop-opacity="0.1"/>
<stop offset="1" stop-color="white" stop-opacity="0.05"/>
</radialGradient>
</defs>
</svg>
