<svg width="382" height="481" viewBox="0 0 382 481" fill="none" xmlns="http://www.w3.org/2000/svg">
<path opacity="0.5" d="M190.706 480.756C295.986 480.756 381.333 394.942 381.333 289.085C381.333 183.228 295.986 97.4141 190.706 97.4141C85.425 97.4141 0.078125 183.228 0.078125 289.085C0.078125 394.942 85.425 480.756 190.706 480.756Z" fill="url(#paint0_radial_3892_173)"/>
<path d="M147.177 419.723C146.981 419.723 146.78 419.695 146.584 419.638L146.13 419.516C72.8751 399.203 21.7705 331.791 21.7705 255.556C21.7705 240.306 23.8355 225.049 27.9097 210.203C35.8006 181.43 51.0882 155.206 72.1087 134.37C72.9682 133.517 74.356 133.527 75.2058 134.391C76.0564 135.258 76.0467 136.653 75.182 137.508C54.7085 157.803 39.8233 183.347 32.1326 211.378C28.1664 225.837 26.152 240.701 26.152 255.556C26.152 329.813 75.9343 395.483 147.218 415.251L147.769 415.401C148.938 415.73 149.615 416.947 149.283 418.117C149.013 419.088 148.135 419.723 147.177 419.723ZM308.666 376.983C308.101 376.983 307.536 376.766 307.11 376.329C306.255 375.465 306.264 374.07 307.124 373.215C327.495 352.963 342.31 327.487 349.978 299.54C353.945 285.085 355.959 270.221 355.959 255.363C355.959 181.107 306.176 115.44 234.898 95.6672C233.734 95.3432 232.907 94.093 233.23 92.9213C233.552 91.7511 234.599 90.9976 235.781 91.3448L235.202 93.4682L236.014 91.4062C309.237 111.717 360.341 179.132 360.341 255.363C360.341 270.616 358.275 285.875 354.202 300.715C346.333 329.399 331.121 355.552 310.209 376.344C309.778 376.771 309.222 376.983 308.666 376.983Z" fill="#DBB968"/>
<path d="M225.228 394.989C224.242 394.989 223.35 394.323 223.102 393.317C222.808 392.138 223.522 390.945 224.7 390.649C248.153 384.777 269.8 372.694 287.298 355.707C314.597 329.212 329.627 293.603 329.627 255.442C329.627 219.157 315.821 184.793 290.755 158.685C289.914 157.811 289.797 156.277 290.666 155.43C291.536 154.579 292.774 154.464 293.624 155.329C293.633 155.343 293.923 155.646 293.937 155.658C319.769 182.56 334.01 218.007 334.01 255.443C334.01 294.81 318.502 331.542 290.343 358.874C272.29 376.402 249.957 388.865 225.755 394.924C225.578 394.97 225.401 394.989 225.228 394.989ZM89.8187 356.073C89.2956 356.073 88.7813 355.876 88.3705 355.467C88.3475 355.439 88.1838 355.27 88.16 355.241C62.3412 328.356 48.1006 292.911 48.1006 255.475C48.1006 216.108 63.6077 179.378 91.7623 152.044C109.765 134.571 132.032 122.121 156.159 116.043C157.35 115.744 158.523 116.468 158.818 117.645C159.112 118.826 158.397 120.022 157.225 120.318C133.841 126.209 112.255 138.278 94.8088 155.216C67.5137 181.711 52.4836 217.315 52.4836 255.475C52.4836 291.76 66.2897 326.124 91.3561 352.23C92.1925 353.099 92.2438 354.56 91.3888 355.406C90.9453 355.847 90.3746 356.073 89.8187 356.073Z" fill="#DBB968"/>
<path d="M191.056 371.086C254.569 371.086 306.056 319.318 306.056 255.457C306.056 191.597 254.569 139.828 191.056 139.828C127.544 139.828 76.0566 191.597 76.0566 255.457C76.0566 319.318 127.544 371.086 191.056 371.086Z" fill="#DBB968"/>
<path d="M191.057 374.76C125.633 374.76 72.4023 321.238 72.4023 255.456C72.4023 189.674 125.633 136.158 191.057 136.158C256.481 136.158 309.708 189.673 309.708 255.456C309.708 321.239 256.481 374.76 191.057 374.76ZM191.057 143.5C129.66 143.5 79.7098 193.722 79.7098 255.455C79.7098 317.188 129.66 367.412 191.057 367.412C252.454 367.412 302.4 317.188 302.4 255.455C302.4 193.722 252.454 143.5 191.057 143.5Z" fill="white"/>
<path d="M108.776 7.63473C108.127 8.17046 107.804 8.87528 107.804 9.75818C107.804 10.6411 108.196 11.3414 108.991 11.8577C109.78 12.3792 111.603 12.995 114.463 13.699C117.322 14.4083 119.541 15.47 121.12 16.8842C122.699 18.3028 123.494 20.3649 123.494 23.0801C123.494 25.8007 122.481 27.9989 120.453 29.6906C118.43 31.3816 115.762 32.2271 112.459 32.2271C107.688 32.2271 103.394 30.4516 99.5723 26.8953L103.581 21.9578C106.828 24.8145 109.832 26.2466 112.589 26.2466C113.823 26.2466 114.794 25.9795 115.5 25.443C116.201 24.908 116.556 24.189 116.556 23.2777C116.556 22.3664 116.182 21.6473 115.434 21.1116C114.687 20.5759 113.206 20.0357 110.996 19.4865C107.488 18.6455 104.923 17.5553 103.301 16.2123C101.675 14.8685 100.867 12.7645 100.867 9.88911C100.867 7.01372 101.895 4.79676 103.946 3.23673C106.002 1.67745 108.567 0.892578 111.642 0.892578C113.651 0.892578 115.664 1.24051 117.673 1.9356C119.686 2.6262 121.439 3.61308 122.934 4.88131L119.528 9.82328C116.912 7.82629 114.211 6.83042 111.426 6.83042C110.304 6.83117 109.42 7.09976 108.776 7.63473Z" fill="#DBB968"/>
<path d="M138.276 13.2443V23.6924C138.276 24.5851 138.505 25.2846 138.968 25.7919C139.425 26.2992 139.972 26.5484 140.603 26.5484C141.813 26.5484 142.832 26.0037 143.663 24.9038L146.079 29.4514C144.065 31.3018 141.949 32.2273 139.72 32.2273C137.497 32.2273 135.613 31.4896 134.076 30.0141C132.538 28.5438 131.767 26.5334 131.767 23.9917V13.2429H129.053V8.56425H131.767V1.58789H138.276V8.56425H143.878V13.2429H138.276V13.2443Z" fill="#DBB968"/>
<path d="M172.197 28.4981C169.581 30.9829 166.511 32.2279 162.993 32.2279C159.474 32.2279 156.563 31.1377 154.265 28.9537C151.966 26.7742 150.816 23.8471 150.816 20.1786C150.816 16.5101 151.989 13.5929 154.33 11.4268C156.671 9.26144 159.437 8.17578 162.628 8.17578C165.815 8.17578 168.524 9.14398 170.753 11.0789C172.977 13.0145 174.089 15.6736 174.089 19.0556V22.5228H157.194C157.395 23.791 158.058 24.834 159.18 25.6421C160.301 26.4494 161.562 26.8542 162.973 26.8542C165.24 26.8542 167.109 26.0888 168.575 24.5572L172.197 28.4981ZM165.987 14.6778C165.099 13.9258 164.011 13.5502 162.735 13.5502C161.455 13.5502 160.283 13.94 159.222 14.7204C158.157 15.5001 157.54 16.5573 157.367 17.8816H167.538C167.394 16.4959 166.88 15.429 165.987 14.6778Z" fill="#DBB968"/>
<path d="M194.818 8.17578C197.519 8.17578 199.925 9.31231 202.037 11.5772C204.149 13.8465 205.205 16.6979 205.205 20.1367C205.205 23.5755 204.149 26.4509 202.037 28.7622C199.925 31.0734 197.454 32.2294 194.627 32.2294C191.796 32.2294 189.52 31.0876 187.796 28.8048V40.2907H181.33V8.56711H187.796V11.1694C189.777 9.17166 192.117 8.17578 194.818 8.17578ZM187.707 20.2445C187.707 22.1375 188.231 23.6833 189.282 24.8812C190.328 26.0791 191.599 26.6806 193.094 26.6806C194.589 26.6806 195.898 26.0791 197.02 24.8812C198.14 23.6825 198.697 22.1472 198.697 20.2677C198.697 18.3882 198.155 16.8147 197.061 15.542C195.968 14.2737 194.66 13.6348 193.137 13.6348C191.613 13.6348 190.329 14.264 189.282 15.5225C188.231 16.7773 187.707 18.356 187.707 20.2445Z" fill="#DBB968"/>
<path d="M238.386 32.2283C234.224 32.2283 231.107 30.8052 229.038 27.9582C226.968 25.1165 225.936 21.3156 225.936 16.5614C225.936 11.8117 226.968 8.01081 229.038 5.1646C231.108 2.31764 234.224 0.894531 238.386 0.894531C242.554 0.894531 245.671 2.31764 247.74 5.1646C249.81 8.01155 250.843 11.8125 250.843 16.5614C250.843 21.3156 249.81 25.1157 247.74 27.9582C245.67 30.8044 242.554 32.2283 238.386 32.2283ZM233.948 9.26106C233 11.1069 232.527 13.5498 232.527 16.5853C232.527 19.6149 233 22.0578 233.948 23.9089C234.896 25.7547 236.377 26.6803 238.386 26.6803C240.399 26.6803 241.881 25.7547 242.83 23.9089C243.778 22.0578 244.25 19.6149 244.25 16.5853C244.25 13.5506 243.778 11.1077 242.83 9.26106C241.881 7.40997 240.399 6.48443 238.386 6.48443C236.377 6.48443 234.896 7.40997 233.948 9.26106Z" fill="#DBB968"/>
<path d="M259.079 7.35215V1.58789H277.525V6.2665L271.362 13.3319C273.773 13.7359 275.642 14.755 276.964 16.3853C278.286 18.0202 278.945 19.9042 278.945 22.0419C278.945 25.2225 277.875 27.7118 275.735 29.5158C273.595 31.325 270.858 32.2266 267.527 32.2266C264.191 32.2266 260.818 31.0429 257.397 28.6703L260.154 23.3011C262.999 25.3213 265.546 26.3314 267.784 26.3314C269.134 26.3314 270.246 26.0029 271.125 25.3355C272.003 24.6733 272.437 23.7104 272.437 22.4556C272.437 21.1964 271.937 20.2005 270.933 19.4628C269.924 18.725 268.531 18.3584 266.752 18.3584C265.803 18.3584 264.467 18.6307 262.743 19.1807V14.1968L268.518 7.35215H259.079Z" fill="#DBB968"/>
<path d="M190.453 168.054C189.243 168.054 188.262 167.067 188.262 165.851V57.1547C188.262 55.9381 189.243 54.9512 190.453 54.9512C191.663 54.9512 192.645 55.9381 192.645 57.1547V165.852C192.644 167.068 191.663 168.054 190.453 168.054Z" fill="#DBB968"/>
<path d="M200.339 57.6517C200.339 52.1628 195.912 47.7109 190.452 47.7109C184.992 47.7109 180.565 52.1621 180.565 57.6517C180.565 63.1414 184.992 67.5925 190.452 67.5925C195.912 67.5925 200.339 63.1414 200.339 57.6517Z" fill="#DBB968"/>
<path d="M233.089 291.939L208.188 266.902C213.12 260.82 216.207 253.165 216.207 244.721C216.207 225.249 200.453 209.414 181.089 209.414C161.722 209.414 145.979 225.249 145.979 244.721C145.979 264.192 161.723 280.027 181.089 280.027C187.426 280.027 193.289 278.198 198.427 275.237L224.062 301.016L233.089 291.939ZM158.749 244.722C158.749 232.333 168.775 222.255 181.089 222.255C193.41 222.255 203.438 232.333 203.438 244.722C203.438 257.106 193.411 267.188 181.089 267.188C168.775 267.188 158.749 257.105 158.749 244.722Z" fill="white"/>
<defs>
<radialGradient id="paint0_radial_3892_173" cx="0" cy="0" r="1" gradientUnits="userSpaceOnUse" gradientTransform="translate(190.705 289.085) scale(190.627 191.671)">
<stop offset="0.1089" stop-color="#DBB968" stop-opacity="0.8"/>
<stop offset="0.1149" stop-color="#DBB968" stop-opacity="0.7"/>
<stop offset="0.2623" stop-color="#DBB968" stop-opacity="0.6"/>
<stop offset="0.4074" stop-color="#DBB968" stop-opacity="0.5"/>
<stop offset="0.5465" stop-color="#DBB968" stop-opacity="0.4"/>
<stop offset="0.6785" stop-color="#DBB968" stop-opacity="0.3"/>
<stop offset="0.8015" stop-color="#DBB968" stop-opacity="0.2"/>
<stop offset="0.9122" stop-color="#DBB968" stop-opacity="0.1"/>
<stop offset="1" stop-color="white" stop-opacity="0.05"/>
</radialGradient>
</defs>
</svg>
